<svg xmlns="http://www.w3.org/2000/svg" width="11.277" height="13.75" viewBox="0 0 11.277 13.75">
  <g id="_-Product-Icons" data-name="ðŸ”-Product-Icons" transform="translate(-9.75 -7.25)">
    <g id="ic_fluent_delete_48_regular" transform="translate(9.75 7.25)">
      <path id="_-Color" data-name="ðŸŽ¨-Color" d="M15.388,7.25a2.275,2.275,0,0,1,2.274,2.188l0,.087h2.869a.495.495,0,0,1,.051.987l-.051,0H20.1l-.674,8.93A1.682,1.682,0,0,1,17.75,21H13.027a1.682,1.682,0,0,1-1.677-1.555l-.674-8.93h-.431a.5.5,0,0,1-.492-.444l0-.051a.5.5,0,0,1,.444-.492l.051,0h2.869A2.275,2.275,0,0,1,15.388,7.25Zm3.72,3.264H11.668l.668,8.856a.692.692,0,0,0,.69.64H17.75a.692.692,0,0,0,.69-.64Zm-2.434,2.077a.5.5,0,0,1,.492.444l0,.051v4.353a.495.495,0,0,1-.987.051l0-.051V13.086A.5.5,0,0,1,16.674,12.592Zm-2.572,0a.5.5,0,0,1,.492.444l0,.051v4.353a.495.495,0,0,1-.987.051l0-.051V13.086A.5.5,0,0,1,14.1,12.592Zm1.286-4.353A1.286,1.286,0,0,0,14.1,9.452l0,.073h2.572A1.286,1.286,0,0,0,15.388,8.239Z" transform="translate(-9.75 -7.25)" fill="#00494b"/>
    </g>
  </g>
</svg>
