<svg xmlns="http://www.w3.org/2000/svg" width="247" height="190.311" viewBox="0 0 247 190.311">
  <g id="_01" data-name="01" transform="translate(0 -0.035)">
    <g id="BACKGROUND" transform="translate(9.658 5.487)">
      <path id="Path_528" data-name="Path 528" d="M230.895,185.769c2,8.066,9.978,12.844,16.255,18.281,1.891,1.639,3.742,3.51,4.463,5.9a15.14,15.14,0,0,1,.191,5.922q-.613,6.03-1.211,12.065c-.722,7.154-2.036,15.312-8.143,19.111-4.324,2.69-9.792,2.314-14.874,1.706-17.106-2.062-34.335-5.705-51.405-3.391-7.86,1.067-15.6,3.4-23.528,3.35-9.452-.057-18.554-3.484-27.981-4.334-8.9-.809-17.827.7-26.718,1.66a221.41,221.41,0,0,1-39.469.727c-4.639-.33-13.565.778-15.359-4.123-1.685-4.6,1.232-10.38,4.525-13.483,4.3-4.056,10.107-6.009,15.585-8.246,11.029-4.489,21.672-9.024,26.434-20.966,2.953-7.406,2.288-16.467-2.768-22.631-8.117-9.906-23.157-10.4-31.021-20.806-3.829-5.071-3.582-13.885-2.381-19.755a35.046,35.046,0,0,1,9.839-18.106c10.091-9.731,25.419-13.014,39.123-10.05,10.648,2.309,21.3,8.056,31.836,5.278,9.442-2.495,15.766-11.132,23.821-16.663,12.993-8.927,31.563-9.019,44.422.1,3.242,2.3,6.185,5.247,7.581,8.973,2.994,8.066-2.062,16.75-2.577,25.342a24.157,24.157,0,0,0,5.36,16.534c3.067,3.742,7.185,6.468,10.54,9.952,2.711,2.814,5.927,5.231,6.535,9.277C230.9,173.456,229.39,179.811,230.895,185.769Z" transform="translate(-38.045 -75.75)" fill="#ffca8a"/>
      <path id="Path_805" data-name="Path 805" d="M108.578,0c59.966,0,108.578,6.346,108.578,14.173S168.543,28.347,108.578,28.347,0,22,0,14.173,48.612,0,108.578,0Z" transform="translate(3.196 156.513)" fill="#ffb361"/>
      <path id="Path_529" data-name="Path 529" d="M35.4,376.873a8.118,8.118,0,0,1-.469-2.263" transform="translate(-34.317 -213.433)" fill="none" stroke="#6dadad" stroke-linecap="round" stroke-linejoin="round" stroke-width="1"/>
      <path id="Path_530" data-name="Path 530" d="M36.26,231.558a17.312,17.312,0,0,1,4.309-6.664c4.3-4.056,10.107-6,15.585-8.246,11.029-4.489,17.843-6.4,22.605-18.338,2.953-7.406,2.288-16.493-2.768-22.631-8.112-9.89-23.151-10.375-31.016-20.765-3.829-5.071-4.123-14.014-2.386-19.755,2.062-6.906,9.792-13.864,9.839-18.121.129-14.024,25.424-13.019,39.129-10.05,10.643,2.3,21.3,8.056,31.831,5.272,9.447-2.494,15.771-11.127,23.821-16.657,13-8.927,31.568-9.025,44.422.1,3.242,2.3,6.185,5.242,7.587,8.968,2.994,8.066-2.062,16.75-2.577,25.342a24.156,24.156,0,0,0,5.37,16.534c3.067,3.747,7.19,6.468,10.545,9.957,2.706,2.814,5.927,5.231,6.53,9.277.912,6.071-.577,12.431.9,18.389,2,8.061,9.978,12.838,16.261,18.281,1.886,1.634,3.737,3.5,4.463,5.9a15.241,15.241,0,0,1,.186,5.922q-.6,5.994-1.191,12.024c-.557,5.566-1.479,11.741-4.736,15.977" transform="translate(-34.961 -74.968)" fill="none" stroke="#6dadad" stroke-linecap="round" stroke-linejoin="round" stroke-width="1" stroke-dasharray="9.01 9.01"/>
      <path id="Path_531" data-name="Path 531" d="M417.02,389.86a12.181,12.181,0,0,1-1.84,1.4" transform="translate(-218.589 -220.823)" fill="none" stroke="#6dadad" stroke-linecap="round" stroke-linejoin="round" stroke-width="1"/>
      <path id="Path_532" data-name="Path 532" d="M196.219,84.62a5.758,5.758,0,0,0-4.314,3.824,10.951,10.951,0,0,0-.2,5.979,3.636,3.636,0,0,0,1.582,2.69,2.34,2.34,0,0,0,2.577-.562,3.752,3.752,0,0,0,.969-2.577,5.453,5.453,0,0,0-10.117-2.933" transform="translate(-107.875 -72.901)" fill="none" stroke="#6dadad" stroke-linecap="round" stroke-linejoin="round" stroke-width="1" stroke-dasharray="6"/>
      <path id="Path_533" data-name="Path 533" d="M467.01,188.587a5.765,5.765,0,0,0-5.721-.747,11.056,11.056,0,0,0-4.638,3.783,3.562,3.562,0,0,0-.99,2.958,2.335,2.335,0,0,0,2.123,1.582,3.778,3.778,0,0,0,2.577-.964,5.453,5.453,0,0,0-4.432-9.555" transform="translate(-238.171 -121.819)" fill="none" stroke="#6dadad" stroke-linecap="round" stroke-linejoin="round" stroke-width="1" stroke-dasharray="6"/>
      <path id="Path_534" data-name="Path 534" d="M38.48,314.64a5.781,5.781,0,0,0-.881,5.705,10.96,10.96,0,0,0,3.67,4.721,3.593,3.593,0,0,0,2.938,1.057,2.345,2.345,0,0,0,1.634-2.087,3.778,3.778,0,0,0-.907-2.6,5.448,5.448,0,0,0-9.653,4.216" transform="translate(-34.455 -184.371)" fill="none" stroke="#6dadad" stroke-linecap="round" stroke-linejoin="round" stroke-width="1" stroke-dasharray="6"/>
      <path id="Path_535" data-name="Path 535" d="M338.543,74.544a5.782,5.782,0,0,0,4.319-3.829,10.951,10.951,0,0,0,.2-5.979,3.617,3.617,0,0,0-1.582-2.685,2.35,2.35,0,0,0-2.577.562,3.783,3.783,0,0,0-.969,2.577,5.453,5.453,0,0,0,10.1,2.938" transform="translate(-181.152 -61.883)" fill="none" stroke="#6dadad" stroke-linecap="round" stroke-linejoin="round" stroke-width="1" stroke-dasharray="6"/>
      <path id="Path_536" data-name="Path 536" d="M41.744,145.7a5.748,5.748,0,0,0,.474-5.752,11.063,11.063,0,0,0-3.994-4.448,3.583,3.583,0,0,0-3-.85,2.34,2.34,0,0,0-1.479,2.2,3.768,3.768,0,0,0,1.082,2.536,5.453,5.453,0,0,0,9.36-4.881" transform="translate(-33.74 -97.074)" fill="none" stroke="#6dadad" stroke-linecap="round" stroke-linejoin="round" stroke-width="1" stroke-dasharray="6"/>
    </g>
    <g id="OBJECTS" transform="translate(0 0.035)">
      <path id="Path_537" data-name="Path 537" d="M426.6,270.084a.123.123,0,0,1-.072-.046.237.237,0,0,1-.026-.118c-.129-2.2,1.031-4.587,2.123-6.442a36.118,36.118,0,0,1,9.122-9.792c1.464-1.149,3-2.273,4.479-3.36,4.293-3.139,8.731-6.386,11.906-10.694l.412.3c-3.216,4.371-7.69,7.643-12.009,10.823-1.484,1.082-3.015,2.2-4.469,3.35-6.35,5-9.942,9.792-10.978,14.606a10.8,10.8,0,0,0-.227,1.062.515.515,0,0,1-.088.263A.185.185,0,0,1,426.6,270.084Z" transform="translate(-214.412 -142.569)" fill="#8d8d62"/>
      <path id="Path_538" data-name="Path 538" d="M434.341,277.279a69.033,69.033,0,0,0,17.967-1.4,20.271,20.271,0,0,0,5.669-1.917l.252.448a20.77,20.77,0,0,1-5.808,1.974,69.628,69.628,0,0,1-18.1,1.412Z" transform="translate(-218.206 -159.206)" fill="#8d8d62"/>
      <path id="Path_539" data-name="Path 539" d="M479.49,269.714a3.463,3.463,0,0,0-3.092-2.3,3.943,3.943,0,0,0-3.247,1.716,3.515,3.515,0,0,0-.515,3.448,4.342,4.342,0,0,0,5.772,1.675C480.093,273.26,480.171,271.384,479.49,269.714Z" transform="translate(-236.658 -156.031)" fill="#85c0c3"/>
      <path id="Path_540" data-name="Path 540" d="M475.17,233.709a3.459,3.459,0,0,0-1.216,3.649A3.943,3.943,0,0,0,476.6,239.9a3.5,3.5,0,0,0,3.438-.577,4.333,4.333,0,0,0-.222-6C478.35,232.023,476.546,232.539,475.17,233.709Z" transform="translate(-237.353 -139.142)" fill="#85c0c3"/>
      <path id="Path_541" data-name="Path 541" d="M428.523,259.337a12.569,12.569,0,0,1,.283-2.015,27.5,27.5,0,0,1,2.526-6.6,17.962,17.962,0,0,1,1.716,12.643c-.222.814-.515,2.824-1.639,2.886-1.6.082-2.242-2.546-2.577-3.68a9.363,9.363,0,0,1-.309-3.231Z" transform="translate(-215.382 -147.943)" fill="#8d8d62"/>
      <path id="Path_542" data-name="Path 542" d="M447.917,241.674a12.66,12.66,0,0,1,.258-2.02A27.671,27.671,0,0,1,450.638,233a18.051,18.051,0,0,1,1.876,12.622c-.211.814-.479,2.83-1.6,2.9-1.6.108-2.273-2.515-2.618-3.644A9.458,9.458,0,0,1,447.917,241.674Z" transform="translate(-224.788 -139.356)" fill="#8d8d62"/>
      <path id="Path_543" data-name="Path 543" d="M464.119,285.095a12.488,12.488,0,0,1,.515,1.974,27.544,27.544,0,0,1,.216,7.071,17.966,17.966,0,0,1-6.484-10.993c-.113-.835-.618-2.8.392-3.293,1.443-.7,3.056,1.479,3.8,2.391A9.439,9.439,0,0,1,464.119,285.095Z" transform="translate(-229.749 -161.996)" fill="#8d8d62"/>
      <path id="Path_544" data-name="Path 544" d="M457.093,265.165a12.045,12.045,0,0,0,1.005-1.773,27.659,27.659,0,0,0,2.015-6.783,17.941,17.941,0,0,0-9.076,8.968c-.325.778-1.314,2.551-.464,3.283,1.216,1.031,3.329-.644,4.283-1.34A9.528,9.528,0,0,0,457.093,265.165Z" transform="translate(-225.919 -150.798)" fill="#8d8d62"/>
      <path id="Path_545" data-name="Path 545" d="M434.135,271.194a87.8,87.8,0,0,1-.516-9.524" transform="translate(-217.867 -153.25)" fill="#6d6c45"/>
      <path id="Path_546" data-name="Path 546" d="M452.62,273.736a38.252,38.252,0,0,1,5.066-7.066" transform="translate(-227.074 -155.673)" fill="#6d6c45"/>
      <path id="Path_547" data-name="Path 547" d="M453.081,254.6a25.459,25.459,0,0,1-.634-8.468" transform="translate(-226.937 -145.719)" fill="#6d6c45"/>
      <path id="Path_548" data-name="Path 548" d="M460.57,280.31a43.041,43.041,0,0,1,3.314,8.086" transform="translate(-230.927 -162.283)" fill="#6d6c45"/>
      <path id="Path_549" data-name="Path 549" d="M373.06,162.888l14.73-41.561c.82-2.309,1.773-4.68,2.69-6.973a108.24,108.24,0,0,0,4.2-11.71c1.319-4.834.33-10.777-3.025-18.173-.758-1.68-1.593-3.366-2.4-4.994-2.34-4.711-4.762-9.581-5.587-14.807l-.515.077c.84,5.309,3.278,10.215,5.633,14.946.8,1.623,1.639,3.3,2.4,4.968,3.3,7.288,4.283,13.117,3,17.827A108.156,108.156,0,0,1,390,114.148c-.923,2.3-1.876,4.675-2.7,6.994L372.57,162.7Z" transform="translate(-188.281 -57.782)" fill="#8d8d62"/>
      <path id="Path_550" data-name="Path 550" d="M404,79.3a68.41,68.41,0,0,1,13.689-11.416,20.1,20.1,0,0,1,5.334-2.577l-.134-.515a20.617,20.617,0,0,0-5.468,2.685,69.013,69.013,0,0,0-13.8,11.5Z" transform="translate(-203.328 -57.84)" fill="#8d8d62"/>
      <path id="Path_551" data-name="Path 551" d="M414.044,125.563c2.917-7.654,10.1-10.452,16.735-12.184,2.536-.66,5.154-1.149,7.7-1.623a71.945,71.945,0,0,0,11.823-2.9l-.18-.479a71.416,71.416,0,0,1-11.735,2.876c-2.577.474-5.185.964-7.731,1.629-6.762,1.763-14.086,4.639-17.085,12.5Z" transform="translate(-208.15 -78.964)" fill="#8d8d62"/>
      <path id="Path_552" data-name="Path 552" d="M428.792,106.071c4.123-1.835,10.823-14.6,11.8-20.044l-.515-.088c-.953,5.35-7.5,17.879-11.5,19.667Z" transform="translate(-215.419 -68.09)" fill="#8d8d62"/>
      <path id="Path_553" data-name="Path 553" d="M436.189,99.686l.469-.206a10.249,10.249,0,0,0-1.4-2.216c-1.6-2.062-3.293-4.051-5.015-5.994l-.381.34c1.716,1.933,3.4,3.943,4.994,5.968A9.394,9.394,0,0,1,436.189,99.686Z" transform="translate(-216.044 -70.673)" fill="#8d8d62"/>
      <rect id="Rectangle_25" data-name="Rectangle 25" width="0.51" height="10.7" transform="translate(205.967 3.465) rotate(-15.16)" fill="#8d8d62"/>
      <path id="Path_554" data-name="Path 554" d="M487.038,103.089a3.427,3.427,0,0,1-.588,3.762,3.917,3.917,0,0,1-3.484,1.031,3.489,3.489,0,0,1-2.763-2.062,4.275,4.275,0,0,1,2.927-5.154C485.012,100.167,486.363,101.44,487.038,103.089Z" transform="translate(-240.356 -75.173)" fill="#85c0c3"/>
      <path id="Path_555" data-name="Path 555" d="M452.757,78.766a3.427,3.427,0,0,1-.588,3.757,3.907,3.907,0,0,1-3.484,1.031,3.479,3.479,0,0,1-2.762-2.062,4.271,4.271,0,0,1,2.927-5.154C450.732,75.838,452.062,77.142,452.757,78.766Z" transform="translate(-223.743 -63.384)" fill="#85c0c3"/>
      <path id="Path_556" data-name="Path 556" d="M428.307,85.1a3.433,3.433,0,0,1-.593,3.757,3.9,3.9,0,0,1-3.484,1.031,3.469,3.469,0,0,1-2.757-2.062,4.271,4.271,0,0,1,2.927-5.154C426.3,82.177,427.632,83.45,428.307,85.1Z" transform="translate(-211.894 -66.455)" fill="#85c0c3"/>
      <path id="Path_557" data-name="Path 557" d="M440.321,60.814a3.422,3.422,0,0,1-.588,3.757,3.9,3.9,0,0,1-3.484,1.031,3.463,3.463,0,0,1-2.757-2.062,4.267,4.267,0,0,1,2.927-5.154C438.305,57.887,439.645,59.165,440.321,60.814Z" transform="translate(-217.718 -54.684)" fill="#85c0c3"/>
      <path id="Path_558" data-name="Path 558" d="M415.118,53.844a3.427,3.427,0,0,1-.588,3.757,3.907,3.907,0,0,1-3.484,1.031,3.489,3.489,0,0,1-2.762-2.062,4.275,4.275,0,0,1,2.927-5.154C413.092,50.916,414.443,52.179,415.118,53.844Z" transform="translate(-205.503 -51.305)" fill="#85c0c3"/>
      <path id="Path_559" data-name="Path 559" d="M392.947,59.7a3.432,3.432,0,0,1-.588,3.757,3.9,3.9,0,0,1-3.484,1.031,3.469,3.469,0,0,1-2.763-2.062,4.271,4.271,0,0,1,2.927-5.154C390.922,56.777,392.272,58.05,392.947,59.7Z" transform="translate(-194.759 -54.146)" fill="#85c0c3"/>
      <path id="Path_560" data-name="Path 560" d="M466.08,119.808a12.369,12.369,0,0,0,1.943.546,27.425,27.425,0,0,0,6.989.335,17.754,17.754,0,0,0-10.751-6.607c-.825-.124-2.768-.655-3.268.335-.716,1.412,1.407,3.046,2.3,3.8A9.481,9.481,0,0,0,466.08,119.808Z" transform="translate(-231.062 -81.605)" fill="#8d8d62"/>
      <path id="Path_561" data-name="Path 561" d="M436.9,127.189a12.366,12.366,0,0,0,1.943.546,27.423,27.423,0,0,0,6.989.335,17.723,17.723,0,0,0-10.751-6.6c-.825-.129-2.768-.66-3.268.33-.716,1.412,1.407,3.046,2.3,3.8a9.438,9.438,0,0,0,2.788,1.593Z" transform="translate(-216.921 -85.182)" fill="#8d8d62"/>
      <path id="Path_562" data-name="Path 562" d="M460.019,96.782a12.225,12.225,0,0,0,.546-1.943,27.4,27.4,0,0,0,.335-6.989,17.6,17.6,0,0,0-6.6,10.756c-.129.825-.66,2.762.33,3.262,1.412.716,3.046-1.407,3.8-2.3A9.37,9.37,0,0,0,460.019,96.782Z" transform="translate(-227.762 -69.015)" fill="#8d8d62"/>
      <path id="Path_563" data-name="Path 563" d="M386.042,83.586a12.178,12.178,0,0,0-1.938-.546,27,27,0,0,0-6.994-.335,17.758,17.758,0,0,0,10.756,6.6c.825.124,2.763.66,3.268-.33.716-1.412-1.407-3.046-2.3-3.8A9.394,9.394,0,0,0,386.042,83.586Z" transform="translate(-190.481 -66.477)" fill="#8d8d62"/>
      <path id="Path_564" data-name="Path 564" d="M396.3,110.09a13.43,13.43,0,0,0-1.943-.546,27.17,27.17,0,0,0-6.989-.33,17.766,17.766,0,0,0,10.756,6.6c.825.124,2.763.66,3.262-.33.716-1.412-1.407-3.051-2.3-3.8A9.6,9.6,0,0,0,396.3,110.09Z" transform="translate(-195.454 -79.324)" fill="#8d8d62"/>
      <path id="Path_565" data-name="Path 565" d="M404.307,132.388a12.241,12.241,0,0,0-.917-1.794,27.23,27.23,0,0,0-4.5-5.355,17.734,17.734,0,0,0,2.464,12.369c.469.691,1.392,2.479,2.458,2.175,1.546-.438,1.283-3.092,1.227-4.273A9.419,9.419,0,0,0,404.307,132.388Z" transform="translate(-200.907 -87.135)" fill="#8d8d62"/>
      <path id="Path_566" data-name="Path 566" d="M417.443,106.549a12.683,12.683,0,0,0,1.979-.392,27.065,27.065,0,0,0,6.391-2.855,17.706,17.706,0,0,0-12.576-1.031c-.794.263-2.763.66-2.768,1.768,0,1.582,2.634,2.087,3.768,2.355A9.442,9.442,0,0,0,417.443,106.549Z" transform="translate(-206.648 -75.659)" fill="#8d8d62"/>
      <path id="Path_567" data-name="Path 567" d="M407.089,63.406a12.185,12.185,0,0,0-.995-1.752,27.12,27.12,0,0,0-4.736-5.154,17.758,17.758,0,0,0,3,12.256c.515.67,1.5,2.412,2.551,2.062,1.505-.515,1.144-3.154,1.031-4.319A9.42,9.42,0,0,0,407.089,63.406Z" transform="translate(-202.158 -53.823)" fill="#8d8d62"/>
      <path id="Path_568" data-name="Path 568" d="M408.654,75.664A85.565,85.565,0,0,0,405,67" transform="translate(-203.997 -58.911)" fill="#6d6c45"/>
      <path id="Path_569" data-name="Path 569" d="M396.24,91.268a37.483,37.483,0,0,0-8.19-2.628" transform="translate(-195.783 -69.398)" fill="#6d6c45"/>
      <path id="Path_570" data-name="Path 570" d="M419.58,105.977a25.178,25.178,0,0,0-8.38.515" transform="translate(-207.002 -77.731)" fill="#6d6c45"/>
      <path id="Path_571" data-name="Path 571" d="M468.966,118.86a25.063,25.063,0,0,0-7.556-3.67" transform="translate(-231.334 -82.264)" fill="#6d6c45"/>
      <path id="Path_572" data-name="Path 572" d="M440.571,126.815A24.993,24.993,0,0,0,433,123.14" transform="translate(-217.566 -86.117)" fill="#6d6c45"/>
      <path id="Path_573" data-name="Path 573" d="M402.87,133.4a25.086,25.086,0,0,0,2.742,7.937" transform="translate(-202.965 -91.089)" fill="#6d6c45"/>
      <path id="Path_574" data-name="Path 574" d="M456.69,107.8a25.063,25.063,0,0,0,3.257-7.731" transform="translate(-229.046 -74.937)" fill="#6d6c45"/>
      <path id="Path_575" data-name="Path 575" d="M407.156,117.123a42.009,42.009,0,0,0-7.9-3.453" transform="translate(-201.215 -81.528)" fill="#6d6c45"/>
      <path id="Path_576" data-name="Path 576" d="M134.737,169.782,126.465,134c-.459-1.989-1.031-4.041-1.546-6.025a89.825,89.825,0,0,1-2.371-10.086c-.639-4.123.742-8.947,4.211-14.751.789-1.314,1.639-2.628,2.464-3.9,2.376-3.68,4.84-7.478,6.015-11.73l.412.113c-1.2,4.314-3.675,8.143-6.071,11.854-.819,1.268-1.67,2.577-2.453,3.891-3.417,5.716-4.778,10.447-4.159,14.467a92.041,92.041,0,0,0,2.319,10.03c.551,1.989,1.118,4.046,1.577,6.04l8.246,35.779Z" transform="translate(-67.045 -68.85)" fill="#8d8d62"/>
      <path id="Path_577" data-name="Path 577" d="M122.546,97.015A57.023,57.023,0,0,0,112.295,86.28a16.7,16.7,0,0,0-4.175-2.613l.16-.4a17.132,17.132,0,0,1,4.283,2.68A57.419,57.419,0,0,1,122.87,96.773Z" transform="translate(-60.127 -66.796)" fill="#8d8d62"/>
      <rect id="Rectangle_26" data-name="Rectangle 26" width="8.911" height="0.423" transform="translate(56.045 22.955) rotate(-68.34)" fill="#8d8d62"/>
      <path id="Path_578" data-name="Path 578" d="M103.309,79.594a2.86,2.86,0,0,0,.129,3.165,3.257,3.257,0,0,0,2.788,1.18,2.9,2.9,0,0,0,2.479-1.453,3.577,3.577,0,0,0-1.933-4.561C105.257,77.368,104.02,78.29,103.309,79.594Z" transform="translate(-57.594 -64.125)" fill="#85c0c3"/>
      <path id="Path_579" data-name="Path 579" d="M124.813,76.207a2.871,2.871,0,0,0,.134,3.165,3.257,3.257,0,0,0,2.788,1.18,2.886,2.886,0,0,0,2.479-1.453,3.567,3.567,0,0,0-1.938-4.556C126.772,73.98,125.529,74.9,124.813,76.207Z" transform="translate(-68.017 -62.485)" fill="#85c0c3"/>
      <path id="Path_580" data-name="Path 580" d="M142.609,83.143a2.85,2.85,0,0,0,.134,3.165,3.257,3.257,0,0,0,2.783,1.175,2.881,2.881,0,0,0,2.479-1.453,3.571,3.571,0,0,0-1.933-4.556C144.563,80.911,143.32,81.839,142.609,83.143Z" transform="translate(-76.639 -65.844)" fill="#85c0c3"/>
      <path id="Path_581" data-name="Path 581" d="M140.605,103.595a9.463,9.463,0,0,1,1.654-.268,22.622,22.622,0,0,1,5.814.381,14.771,14.771,0,0,1-9.519,4.448c-.691.026-2.345.289-2.67-.582-.459-1.232,1.453-2.386,2.263-2.922A7.777,7.777,0,0,1,140.605,103.595Z" transform="translate(-73.547 -76.493)" fill="#8d8d62"/>
      <path id="Path_582" data-name="Path 582" d="M130.215,85.235a11.185,11.185,0,0,1,.99-1.361,22.8,22.8,0,0,1,4.4-3.814,14.771,14.771,0,0,1-3.639,9.859c-.474.515-1.469,1.85-2.309,1.464-1.2-.557-.644-2.721-.448-3.67A7.731,7.731,0,0,1,130.215,85.235Z" transform="translate(-70.202 -65.24)" fill="#8d8d62"/>
      <path id="Path_583" data-name="Path 583" d="M130.42,95.16a72.511,72.511,0,0,1,3.494-7.03" transform="translate(-70.933 -69.151)" fill="#6d6c45"/>
      <path id="Path_584" data-name="Path 584" d="M136.69,108.773A31.588,31.588,0,0,1,143.627,107" transform="translate(-73.972 -78.295)" fill="#6d6c45"/>
      <path id="Path_585" data-name="Path 585" d="M267.82,70.038a19.59,19.59,0,0,1,1.273-2.85,42.118,42.118,0,0,1,6.525-8.628,27.43,27.43,0,0,1-2.8,19.307c-.67,1.1-1.953,3.938-3.608,3.551-2.386-.546-2.227-4.685-2.237-6.494A14.66,14.66,0,0,1,267.82,70.038Z" transform="translate(-137.107 -54.821)" fill="#8d8d62"/>
      <path id="Path_586" data-name="Path 586" d="M270.2,88.75a26.1,26.1,0,0,1,4.34-12.57c-.619,2.165-1.371,4.226-2.062,6.319S271.05,86.663,270.2,88.75Z" transform="translate(-138.672 -63.36)" fill="#6d6c45"/>
      <path id="Path_587" data-name="Path 587" d="M244.682,83.078a19.333,19.333,0,0,0-2.912-1.108,41.83,41.83,0,0,0-10.72-1.489,27.443,27.443,0,0,0,15.642,11.668c1.252.3,4.164,1.4,5.071-.057,1.3-2.062-1.737-4.886-3.01-6.185A14.555,14.555,0,0,0,244.682,83.078Z" transform="translate(-119.7 -65.444)" fill="#8d8d62"/>
      <path id="Path_588" data-name="Path 588" d="M259.1,95.129A26.223,26.223,0,0,0,247.15,89.31c1.964,1.093,3.958,2.02,5.932,3S257.03,94.253,259.1,95.129Z" transform="translate(-127.502 -69.723)" fill="#6d6c45"/>
      <path id="Path_589" data-name="Path 589" d="M42.534,363.407a14.919,14.919,0,0,1,.953-2.129,31.288,31.288,0,0,1,4.886-6.468,20.53,20.53,0,0,1-2.1,14.467c-.515.83-1.464,2.948-2.716,2.665-1.788-.412-1.67-3.515-1.675-4.871a11,11,0,0,1,.655-3.664Z" transform="translate(-28.026 -198.386)" fill="#8d8d62"/>
      <path id="Path_590" data-name="Path 590" d="M44.34,377.427A19.538,19.538,0,0,1,47.592,368c-.464,1.623-1.031,3.17-1.546,4.736S44.974,375.865,44.34,377.427Z" transform="translate(-29.218 -204.778)" fill="#6d6c45"/>
      <path id="Path_591" data-name="Path 591" d="M25.215,373.173a14.535,14.535,0,0,0-2.185-.83A31.441,31.441,0,0,0,15,371.23a20.686,20.686,0,0,0,11.72,8.762c.938.232,3.123,1.031,3.8-.041.974-1.546-1.3-3.664-2.257-4.638a10.958,10.958,0,0,0-3.051-2.139Z" transform="translate(-15 -206.343)" fill="#8d8d62"/>
      <path id="Path_592" data-name="Path 592" d="M36.018,382.235a18.078,18.078,0,0,0-4.2-2.742,18.042,18.042,0,0,0-4.762-1.6c1.474.819,2.969,1.515,4.448,2.247S34.466,381.555,36.018,382.235Z" transform="translate(-20.844 -209.571)" fill="#6d6c45"/>
      <path id="Path_593" data-name="Path 593" d="M317.175,164.5l-.634-4.922a2.577,2.577,0,0,1,.17-1.706,1.278,1.278,0,0,1,2.226.113,2.576,2.576,0,0,1,.119,1.392l-.515,5.355" transform="translate(-161.093 -102.658)" fill="#5e4a58"/>
      <path id="Path_594" data-name="Path 594" d="M319.5,167.421v14.4c0,.2.036.629.052.825H310.79c-.216,0-.335-.134-.551-.134V168.05a2.72,2.72,0,0,1,.031-.737c.258-.062.582-.211.84-.273Z" transform="translate(-158.069 -107.391)" fill="#85c0c3"/>
      <path id="Path_595" data-name="Path 595" d="M324.99,167.421v15.225H321.7c-.082,0-.129-.134-.211-.134v-15.2c.1-.062.216-.211.314-.273Z" transform="translate(-163.527 -107.391)" fill="#6dadad" opacity="0.5"/>
      <line id="Line_15" data-name="Line 15" x2="4.726" transform="translate(153.638 63.334)" fill="none" stroke="#6dadad" stroke-linecap="round" stroke-linejoin="round" stroke-width="0.5"/>
      <line id="Line_16" data-name="Line 16" x2="4.128" transform="translate(152.443 65.947)" fill="none" stroke="#6dadad" stroke-linecap="round" stroke-linejoin="round" stroke-width="0.5"/>
      <line id="Line_17" data-name="Line 17" x2="2.469" transform="translate(158.921 65.859)" fill="none" stroke="#6dadad" stroke-linecap="round" stroke-linejoin="round" stroke-width="0.5"/>
      <line id="Line_18" data-name="Line 18" x2="2.469" transform="translate(158.921 71.791)" fill="none" stroke="#6dadad" stroke-linecap="round" stroke-linejoin="round" stroke-width="0.5"/>
      <line id="Line_19" data-name="Line 19" x2="9.184" transform="translate(152.216 67.601)" fill="none" stroke="#6dadad" stroke-linecap="round" stroke-linejoin="round" stroke-width="0.5"/>
      <line id="Line_20" data-name="Line 20" x2="5.412" transform="translate(156.071 69.158)" fill="none" stroke="#6dadad" stroke-linecap="round" stroke-linejoin="round" stroke-width="0.5"/>
      <line id="Line_21" data-name="Line 21" x2="5.87" transform="translate(152.309 70.9)" fill="none" stroke="#6dadad" stroke-linecap="round" stroke-linejoin="round" stroke-width="0.5"/>
      <path id="Path_596" data-name="Path 596" d="M315.59,193.41h6.247" transform="translate(-160.668 -120.17)" fill="none" stroke="#6dadad" stroke-linecap="round" stroke-linejoin="round" stroke-width="0.5"/>
      <path id="Path_597" data-name="Path 597" d="M315.59,171h6.247" transform="translate(-160.668 -109.31)" fill="none" stroke="#6dadad" stroke-linecap="round" stroke-linejoin="round" stroke-width="0.5"/>
      <path id="Path_598" data-name="Path 598" d="M308.61,167.183c-.428-.046-.907.036-1.17-.325a1.35,1.35,0,0,1-.2-.835c.052-1.17,1.16-1.294,2.062-1.18a23.519,23.519,0,0,0,2.628,0h5.231c.6,0,1.546-.232,1.907.3a1.546,1.546,0,0,1,.227,1.191c-.139.629-.407.933-1,.861a7.931,7.931,0,0,0-.928,0H308.61Z" transform="translate(-156.621 -106.302)" fill="#685261"/>
      <path id="Path_599" data-name="Path 599" d="M308.61,197.963c-.428-.041-.907.036-1.17-.325a1.35,1.35,0,0,1-.2-.835c.052-1.17,1.16-1.289,2.062-1.18a22.352,22.352,0,0,0,2.628,0h5.231c.6,0,1.546-.232,1.907.3a1.546,1.546,0,0,1,.227,1.191c-.139.629-.407.933-1,.861a7.931,7.931,0,0,0-.928,0H308.61Z" transform="translate(-156.621 -121.219)" fill="#685261"/>
      <path id="Path_600" data-name="Path 600" d="M217.658,175.288a42.9,42.9,0,0,1-11.009,3.144c-3.407.515-7.1.515-10.05-1.247s-4.726-5.86-2.964-8.818c1.67-2.8,6-3.283,8.54-1.237a7.551,7.551,0,0,1,1.721,8.906,10.435,10.435,0,0,1-7.674,5.453,15.668,15.668,0,0,1-10.468-2.025c-3.716-2.206-7.257-4.53-11.493-5.623a27.6,27.6,0,0,0-12.143-.454c-4.185.819-7.937,2.994-12.05,4.051a30.778,30.778,0,0,1-6.241.515q-3.391.139-6.8.134a25.3,25.3,0,0,0-3.953.191,23.116,23.116,0,0,0-7.1,2.479,8.371,8.371,0,0,1-2.891,1.031,11.853,11.853,0,0,1-3.386,0c-1.263-.18-2.871-.572-3.608-1.7a2.062,2.062,0,0,1,.258-2.69,2.438,2.438,0,0,1,2.123-.309,3.907,3.907,0,0,1,1.984,1.221c1.8,2.092-.428,4.639-1.392,6.6-.773,1.582-1.33,3.288-2.129,4.84a21.389,21.389,0,0,0-2.268,9.921c-.041,3.907,1.087,6.814,3.025,10.179a27.587,27.587,0,0,0,4.845,6.746,26.323,26.323,0,0,0,3.608,2.654" transform="translate(-63.298 -106.826)" fill="none" stroke="#6dadad" stroke-linecap="round" stroke-linejoin="round" stroke-width="1.15"/>
      <path id="Path_601" data-name="Path 601" d="M120.982,283.24c4.237,2.819,1.752,6.123,4.587,9.792,3.221,4.154,1.417,9.3-1.139,11.71-3.412,3.216-9.236,2.113-13.364,1.062a13.4,13.4,0,0,1-4.819-2.031,5.647,5.647,0,0,1-2.577-4.314,3.355,3.355,0,0,1,.216-1.232,2.536,2.536,0,0,1,4.355-.582c1.4,1.83-.211,3.814-1.84,4.793a12.021,12.021,0,0,1-8.391,1.247,22.249,22.249,0,0,1-7.891-3.463" transform="translate(-51.404 -163.703)" fill="none" stroke="#6dadad" stroke-linecap="round" stroke-linejoin="round" stroke-width="1.15"/>
      <path id="Path_602" data-name="Path 602" d="M258.232,345.318c0,.876-.041,1.752-.067,2.623a1.386,1.386,0,0,1-.113.634c-.247.469-1.144.237-1.587.237H142.1c-1.263,0-3.865.866-4.9-.165a1.546,1.546,0,0,1-.294-1.113v-3.469a1.15,1.15,0,0,1,.119-.618,1.072,1.072,0,0,1,.685-.376c1-.237,13.307,0,18.436,0h93.8c1.381,0,2.814-.119,4.19-.041.7.036,1.407,0,2.1.041.49,0,1.479-.149,1.85.258a.928.928,0,0,1,.18.515,11.216,11.216,0,0,1-.041,1.474Z" transform="translate(-74.072 -192.646)" fill="#685261"/>
      <path id="Path_603" data-name="Path 603" d="M249.868,365.858H130.235a5.838,5.838,0,0,1-3.031-.32,2.577,2.577,0,0,1-1.211-1.85c-.2-1.113.428-11.72.222-11.72H252.852c1.752,0,3.994-.366,4.484,1.778a23.731,23.731,0,0,1,.206,6.808c-.062,1,.433,4.4-.551,4.948a1.715,1.715,0,0,1-.825.15C254.063,365.677,251.956,365.858,249.868,365.858Z" transform="translate(-68.77 -196.997)" fill="#8b7780"/>
      <path id="Path_604" data-name="Path 604" d="M257.534,360.554a23.919,23.919,0,0,0-.206-6.808c-.49-2.144-2.732-1.778-4.484-1.778h-.175a40.812,40.812,0,0,1-.124,4.278c-.062.995.438,4.4-.546,4.943a1.716,1.716,0,0,1-.825.15c-2.1.026-4.216.206-6.3.206H125.969a17.684,17.684,0,0,0,0,2.144,2.577,2.577,0,0,0,1.211,1.85,6.025,6.025,0,0,0,3.03.32H249.859c2.087,0,4.2-.18,6.3-.206a1.717,1.717,0,0,0,.825-.149C257.966,364.95,257.472,361.554,257.534,360.554Z" transform="translate(-68.761 -196.997)" fill="#7f6a77"/>
      <path id="Path_605" data-name="Path 605" d="M365.727,229.711c-.144,3.5-.34,7.391-1.886,10.591a1.2,1.2,0,0,1-.356.474,1.185,1.185,0,0,1-.685.119l-.907-.026h-.1c-.655,0-1.319-.046-1.979-.041-.361,0-.665.057-.938.026a.953.953,0,0,1-.783-.629,1.547,1.547,0,0,1-.088-.758c.371-6.133-.515-12.251.6-18.291a9.091,9.091,0,0,1,3.608-1.191h.2a1.778,1.778,0,0,1,1.031.129,2,2,0,0,1,.8,1.175A22.928,22.928,0,0,1,365.727,229.711Z" transform="translate(-181.217 -133.036)" fill="#8b7481"/>
      <path id="Path_606" data-name="Path 606" d="M369.3,229.7c-.144,3.5-.34,7.391-1.886,10.591a1.2,1.2,0,0,1-.356.474,1.186,1.186,0,0,1-.685.119l-.907-.026h-.1c.129-.861.335-1.711.515-2.577a40.456,40.456,0,0,0,.763-6,57.144,57.144,0,0,0-.49-10.741c-.057-.428-.206-.984-.35-1.582h.2a1.778,1.778,0,0,1,1.031.129,2,2,0,0,1,.8,1.175A22.929,22.929,0,0,1,369.3,229.7Z" transform="translate(-184.792 -133.022)" fill="#775f6e"/>
      <path id="Path_607" data-name="Path 607" d="M252.166,265.618c0,2.206.289,8.463-.541,8.8-2.232.9-7.1.062-9.478.062h-27.9a64.709,64.709,0,0,0,.917-7.731c.175-2.613.3-5.231.515-7.844.32-4.206,1.355-19.183,1.417-22.456.052-2.34-.3-5.381-2.4-6.834-2.4-1.665-5.989-1.2-8.762-1.2H181.093c-1.866,0-4.1.34-5.365,1.866a90.336,90.336,0,0,0-7.38,11.06c-1.072,1.768-2.087,3.566-3.092,5.36-.835,1.474-1.618,2.845-3.237,3.608a4.533,4.533,0,0,1-.732.258c-2.2.572-4.5.35-6.746.366-4.587,0-9.179,0-13.766-.062a3.763,3.763,0,0,1-.552-.036C136.651,250.4,137,245.95,137,243.27v-17.7a23.666,23.666,0,0,1,0-4.561c.062-1.845.036-3.706.057-5.556.041-3.706.062-7.406-.062-11.112-.041-1.206-.309-3.324.814-4.123.959-.675,2.01-.335,3.092-.335H170.79c2.494,0,4.994.113,7.5.113h63.022a9.493,9.493,0,0,1,8.932,4.984c2.288,3.912,2.062,8.086,2.1,12.467.041,3.092-.18,6.185-.18,9.246Z" transform="translate(-74.062 -123.264)" fill="#8b7481"/>
      <path id="Path_608" data-name="Path 608" d="M171.183,187.623c-.129,1.443-.247,3.9-.371,5.458h-.727c-.062-1.479-.144-4.046-.206-5.4a3.665,3.665,0,0,1,.1-1.459c.134-.32.376-.515.608-.464a.83.83,0,0,1,.515.66A3.732,3.732,0,0,1,171.183,187.623Z" transform="translate(-90.04 -116.46)" fill="#5e4a58"/>
      <path id="Path_609" data-name="Path 609" d="M210.945,248.9c-.113-2.062-.66-4.314-2.381-5.5-2.4-1.665-5.989-1.2-8.762-1.2h-25.46c-1.861,0-4.092.34-5.365,1.866a90.337,90.337,0,0,0-7.38,11.06c-1.067,1.768-2.062,3.567-3.092,5.36-.84,1.474-1.618,2.845-3.242,3.608a4.37,4.37,0,0,1-.732.258c-2.2.572-4.5.35-6.741.366-3.556,0-7.118,0-10.679-.036,0,2.67.036,6.283,3.232,6.674a3.767,3.767,0,0,0,.551.036c4.587.041,9.179.082,13.766.062a26.633,26.633,0,0,0,6.746-.366,4.1,4.1,0,0,0,.732-.258c1.618-.752,2.4-2.123,3.237-3.608,1.031-1.794,2.062-3.608,3.092-5.355a89.944,89.944,0,0,1,7.38-11.06c1.268-1.546,3.5-1.871,5.365-1.871h25.46C207.982,248.939,209.481,248.836,210.945,248.9Z" transform="translate(-74.175 -143.786)" fill="#7f6a77"/>
      <path id="Path_610" data-name="Path 610" d="M324.917,227.222c0-3.092.222-6.185.186-9.246-.057-4.381.18-8.555-2.108-12.467a9.277,9.277,0,0,0-5.875-4.639c1.211,3.288,1.062,6.747,1.108,10.349.036,3.092-.18,6.185-.18,9.246v38.922c0,2.206.283,8.463-.546,8.8-2.232.9-7.092.062-9.478.062H287.814A60.42,60.42,0,0,1,287,275h27.924c2.386,0,7.246.84,9.478-.067.83-.34.541-6.6.541-8.8Z" transform="translate(-146.813 -123.786)" fill="#7f6a77"/>
      <path id="Path_611" data-name="Path 611" d="M153.614,218.075a4.437,4.437,0,0,0,2.866-1.783,4.5,4.5,0,0,0-.562-5.4,6.149,6.149,0,0,0-5.365-1.711c-6.288.912-9.1,9.689-5.628,14.678a9.875,9.875,0,0,0,4.015,3.19c5.463,2.551,12.2,1.943,17.874.366,5.927-1.649,11.5-4.412,17.451-6,6.035-1.613,12.07-1.546,18.26-1.479s12.426.459,18.312,2.428a15.286,15.286,0,0,1,5.494,2.927,11.97,11.97,0,0,1,3.639,8.061c.588,8.385-5.339,15.792-3.809,24.311.484,2.711,2.18,6.484,4.762,7.808a5.37,5.37,0,0,0,7.731-5.757c-.263-1.453-1.417-2.917-2.9-2.855" transform="translate(-77.233 -127.771)" fill="none" stroke="#775f6e" stroke-miterlimit="10" stroke-width="1"/>
      <path id="Path_612" data-name="Path 612" d="M165.4,246.92a29.674,29.674,0,0,1-4.386.227,14.947,14.947,0,0,0-6.283.886,5.216,5.216,0,0,0-2.407,1.933,3.723,3.723,0,0,0-.335,3.608,3.159,3.159,0,0,0,2.062,1.417,3.586,3.586,0,0,0,3.876-1.438,2.654,2.654,0,0,0,.072-2.062" transform="translate(-81.223 -146.102)" fill="none" stroke="#775f6e" stroke-miterlimit="10" stroke-width="1"/>
      <path id="Path_613" data-name="Path 613" d="M223.535,218.926a2.33,2.33,0,0,0-.727-3.041c-2.257-1.438-6.185.381-6.149,3.134a4.783,4.783,0,0,0,2.417,3.948c1.634.907,3.443.716,5.211.438a29.986,29.986,0,0,1,5.205-.433" transform="translate(-112.726 -130.818)" fill="none" stroke="#775f6e" stroke-miterlimit="10" stroke-width="1"/>
      <path id="Path_614" data-name="Path 614" d="M309.33,239.133a40.672,40.672,0,0,0-1.464-8.143c-.66-2.536-1.057-5.272-.175-7.731a8.107,8.107,0,0,1,9.277-4.937,5,5,0,0,1,3.953,4.35,5.752,5.752,0,0,1-1.3,4.963,3.871,3.871,0,0,1-4.845.649" transform="translate(-156.594 -132.151)" fill="none" stroke="#775f6e" stroke-miterlimit="10" stroke-width="1"/>
      <path id="Path_615" data-name="Path 615" d="M178.105,246.77a2.773,2.773,0,0,1,.088,3.226,6.963,6.963,0,0,1-.995-2.458.794.794,0,0,1,.134-.763" transform="translate(-93.581 -146.029)" fill="none" stroke="#775f6e" stroke-miterlimit="10" stroke-width="1"/>
      <path id="Path_616" data-name="Path 616" d="M150.2,251.592a2.778,2.778,0,0,1-2.716-1.752,6.947,6.947,0,0,1,2.577.572c.247.1.515.268.551.515" transform="translate(-79.201 -147.517)" fill="none" stroke="#775f6e" stroke-miterlimit="10" stroke-width="1"/>
      <path id="Path_617" data-name="Path 617" d="M219.647,234.09a2.773,2.773,0,0,1,.093,3.226,6.88,6.88,0,0,1-1-2.458.8.8,0,0,1,.134-.763" transform="translate(-113.713 -139.884)" fill="none" stroke="#775f6e" stroke-miterlimit="10" stroke-width="1"/>
      <path id="Path_618" data-name="Path 618" d="M281.862,232.1a2.783,2.783,0,0,1-.783,3.134,6.939,6.939,0,0,1-.3-2.639.815.815,0,0,1,.335-.7" transform="translate(-143.788 -138.823)" fill="none" stroke="#775f6e" stroke-miterlimit="10" stroke-width="1"/>
      <path id="Path_619" data-name="Path 619" d="M301.969,285.372a2.788,2.788,0,0,1-2.489-2.062,6.869,6.869,0,0,1,2.51.871,1.032,1.032,0,0,1,.433.4" transform="translate(-152.861 -163.737)" fill="none" stroke="#775f6e" stroke-miterlimit="10" stroke-width="1"/>
      <path id="Path_620" data-name="Path 620" d="M328.13,306.306a2.778,2.778,0,0,1,3.216.33,6.989,6.989,0,0,1-2.577.67,1.1,1.1,0,0,1-.582-.093" transform="translate(-166.745 -174.704)" fill="none" stroke="#775f6e" stroke-miterlimit="10" stroke-width="1"/>
      <path id="Path_621" data-name="Path 621" d="M299.674,234.576a2.778,2.778,0,0,1,1.484-2.866,6.906,6.906,0,0,1-.314,2.634c-.088.258-.222.546-.485.6" transform="translate(-152.942 -138.731)" fill="none" stroke="#775f6e" stroke-miterlimit="10" stroke-width="1"/>
      <path id="Path_622" data-name="Path 622" d="M310.673,264.766a2.773,2.773,0,0,1,3.221.258,7,7,0,0,1-2.577.727.794.794,0,0,1-.737-.216" transform="translate(-158.24 -154.557)" fill="none" stroke="#775f6e" stroke-miterlimit="10" stroke-width="1"/>
      <path id="Path_623" data-name="Path 623" d="M306.33,308.411a2.773,2.773,0,0,1,2.922-1.448,6.988,6.988,0,0,1-1.819,1.933.783.783,0,0,1-.747.2" transform="translate(-156.181 -175.18)" fill="none" stroke="#775f6e" stroke-miterlimit="10" stroke-width="1"/>
      <path id="Path_624" data-name="Path 624" d="M334,227.336a2.773,2.773,0,0,1,3.206-.35,6.905,6.905,0,0,1-2.371,1.2.788.788,0,0,1-.768-.072" transform="translate(-169.59 -136.27)" fill="none" stroke="#775f6e" stroke-miterlimit="10" stroke-width="1"/>
      <path id="Path_625" data-name="Path 625" d="M323.559,218.182a2.778,2.778,0,0,1-.242,3.221,6.926,6.926,0,0,1-.737-2.551.8.8,0,0,1,.206-.742" transform="translate(-164.045 -132.14)" fill="none" stroke="#775f6e" stroke-miterlimit="10" stroke-width="1"/>
      <path id="Path_626" data-name="Path 626" d="M308.894,221.157a2.783,2.783,0,0,1-2.134-2.427,6.818,6.818,0,0,1,2.34,1.258c.211.17.428.4.387.67" transform="translate(-156.389 -132.441)" fill="none" stroke="#775f6e" stroke-miterlimit="10" stroke-width="1"/>
      <path id="Path_627" data-name="Path 627" d="M197.074,238.82a2.783,2.783,0,0,1-1.165-3.01,6.762,6.762,0,0,1,1.763,1.984.794.794,0,0,1,.134.758" transform="translate(-102.628 -140.718)" fill="none" stroke="#775f6e" stroke-miterlimit="10" stroke-width="1"/>
      <path id="Path_628" data-name="Path 628" d="M237.657,227.115a2.768,2.768,0,0,1,.515-3.185,6.941,6.941,0,0,1,.515,2.577.8.8,0,0,1-.273.722" transform="translate(-122.761 -134.961)" fill="none" stroke="#775f6e" stroke-miterlimit="10" stroke-width="1"/>
      <path id="Path_629" data-name="Path 629" d="M144.39,232.507a2.768,2.768,0,0,1,2.933-1.345,6.932,6.932,0,0,1-1.876,1.881.783.783,0,0,1-.747.17" transform="translate(-77.703 -138.441)" fill="none" stroke="#775f6e" stroke-miterlimit="10" stroke-width="1"/>
      <path id="Path_630" data-name="Path 630" d="M150.246,208.566a2.768,2.768,0,0,1-1.448-2.886,6.849,6.849,0,0,1,1.943,1.809.788.788,0,0,1,.206.742" transform="translate(-79.823 -126.117)" fill="none" stroke="#775f6e" stroke-miterlimit="10" stroke-width="1"/>
      <path id="Path_631" data-name="Path 631" d="M166.956,215.32a2.778,2.778,0,0,1-2.886,1.448,6.937,6.937,0,0,1,1.809-1.948.8.8,0,0,1,.742-.2" transform="translate(-87.241 -130.438)" fill="none" stroke="#775f6e" stroke-miterlimit="10" stroke-width="1"/>
      <path id="Path_632" data-name="Path 632" d="M175.839,275.289a1.819,1.819,0,1,1-1.814-1.819A1.819,1.819,0,0,1,175.839,275.289Z" transform="translate(-91.18 -158.968)" fill="#685261"/>
      <path id="Path_633" data-name="Path 633" d="M163.014,325.39h2.458a.16.16,0,0,0,0,.1v1.087H162.38a9.273,9.273,0,0,0,.552-.923A.753.753,0,0,0,163.014,325.39Z" transform="translate(-86.422 -184.129)" fill="#685261"/>
      <path id="Path_634" data-name="Path 634" d="M162.722,326.935c.423-.186.474-.809.438-1.206-.062-.691-.041-1.386-.052-2.062,0-.438.1-1.031-.186-1.386a.66.66,0,0,0-.464-.263c-.649-.036-.84.484-.9,1.031a18.241,18.241,0,0,0-.052,2.314c0,.428-.16,1.18.247,1.495A1.149,1.149,0,0,0,162.722,326.935Z" transform="translate(-85.985 -182.494)" fill="#8b7481"/>
      <path id="Path_635" data-name="Path 635" d="M168.46,302.125c.031-1.433-.057-2.814-.093-4.242,0-.232.119-.83-.175-.948a5.287,5.287,0,0,0-1.376.088,9.612,9.612,0,0,0-1.407-.175c-.433.072-.263.386-.258.737s0,.665,0,1c0,1.386-.036,2.778,0,4.169v2.495c0,.639-.268,1.7.417,2.093a1.789,1.789,0,0,0,.763.2c.608.046,1.9.108,2.062-.66a11.7,11.7,0,0,0,.072-2.123C168.486,303.883,168.44,303,168.46,302.125Z" transform="translate(-87.74 -170.291)" fill="#8b7481"/>
      <path id="Path_636" data-name="Path 636" d="M168.565,314.945v5.412a25.732,25.732,0,0,1,0,2.819.752.752,0,0,1-.1.366.881.881,0,0,1-.727.278h-.515a.912.912,0,0,1-.819-.232.892.892,0,0,1-.113-.515V319.81c0-.8-.057-1.582-.067-2.366v-2.886h0c0-.108.057-.108.144-.175a1.408,1.408,0,0,1,.7-.289,1.058,1.058,0,0,1,.4.036C167.854,314.234,168.565,314.559,168.565,314.945Z" transform="translate(-88.282 -178.653)" fill="#8b7481"/>
      <path id="Path_637" data-name="Path 637" d="M153.572,281.775l-.01.856.005.015-.175,5-.17-5v.015l-.052-.9Z" transform="translate(-74.227 -136.561)" fill="#8b7481"/>
      <path id="Path_638" data-name="Path 638" d="M174.319,325.39h2.453a.211.211,0,0,0,0,.1v1.088H173.68a9.232,9.232,0,0,0,.546-.923A.762.762,0,0,0,174.319,325.39Z" transform="translate(-91.898 -184.129)" fill="#685261"/>
      <path id="Path_639" data-name="Path 639" d="M178.208,325.714a1.453,1.453,0,0,0,.866,1.072,1.324,1.324,0,0,0,1.309-.278,1.546,1.546,0,0,0,.268-1.891,1.33,1.33,0,0,0-1.629-.562A1.553,1.553,0,0,0,178.208,325.714Z" transform="translate(-94.081 -183.437)" fill="#8b7481"/>
      <path id="Path_640" data-name="Path 640" d="M170.7,326.456h.515a2.412,2.412,0,0,0,.923-.026.938.938,0,0,0,.052-1.69,1.614,1.614,0,0,0-.515-.1,17.182,17.182,0,0,0-1.855,0,.578.578,0,0,0-.325.082.515.515,0,0,0-.134.2,2.324,2.324,0,0,0-.216.835c0,.227-.088.7.222.722h.68Z" transform="translate(-89.692 -183.752)" fill="#8b7481"/>
      <path id="Path_641" data-name="Path 641" d="M171.233,309.647c.881-.1,2.938-.387,3.469.541a1.438,1.438,0,0,1-.237,1.706,1.593,1.593,0,0,1-.856.289c-.613.072-1.861.108-2.479.108" transform="translate(-90.662 -176.442)" fill="#8b7481"/>
      <circle id="Ellipse_14" data-name="Ellipse 14" cx="7.932" cy="7.932" r="7.932" transform="translate(117.298 84.537)" fill="#775f6e"/>
      <circle id="Ellipse_15" data-name="Ellipse 15" cx="3.448" cy="3.448" r="3.448" transform="translate(121.782 89.021)" fill="#685261"/>
      <circle id="Ellipse_16" data-name="Ellipse 16" cx="4.18" cy="4.18" r="4.18" transform="translate(78.664 112.157)" fill="#775f6e"/>
      <path id="Path_642" data-name="Path 642" d="M198.709,208.178l.031.036c.175.2.077.665.088.928,0,.417.036.84.052,1.263.031.866.062,1.732.067,2.6,0,1.314.361,2.737.052,4.015a2.263,2.263,0,0,1-1.319,1.66,2.2,2.2,0,0,1-.634.124,3.123,3.123,0,0,1-2.628-1.031c-.665-.809-.474-2.376-.515-3.371,0-.6.113-1.185.1-1.778s0-1.294-.026-1.943a10.5,10.5,0,0,1,.119-2.093c.082-.448.727-.7.258-1.175a1.113,1.113,0,0,1,.294-1.737,6.82,6.82,0,0,1,3.092-.18,1.51,1.51,0,0,1,1.067.4,1.273,1.273,0,0,1,.088,1.35C198.745,207.631,198.286,207.734,198.709,208.178Z" transform="translate(-101.696 -125.986)" fill="#775f6e"/>
      <path id="Path_643" data-name="Path 643" d="M195.914,223.273a1.438,1.438,0,0,0-.088.149,1.65,1.65,0,0,0-.1.794,1.6,1.6,0,0,0,.84,1.392,1.759,1.759,0,0,0,1.773,0,1.721,1.721,0,0,0,.577-1.005,1.778,1.778,0,0,0-.289-1.335,1.814,1.814,0,0,0-1.268-.768A1.716,1.716,0,0,0,195.914,223.273Z" transform="translate(-102.576 -134.268)" fill="#685261"/>
      <path id="Path_644" data-name="Path 644" d="M197.523,212.211a.691.691,0,0,0,.17.567.881.881,0,0,0,.608.242.872.872,0,0,0,.283-.026.7.7,0,0,0,.479-.613.775.775,0,1,0-1.541-.17Z" transform="translate(-103.448 -128.947)" fill="#685261"/>
      <path id="Path_645" data-name="Path 645" d="M320.67,284.884v.124c0,1.232.516,2.062,1.83,2.139.912.041,1.742-.062,1.907-1.1a22.9,22.9,0,0,0,.155-3.417,7.213,7.213,0,0,0-.134-2.211c-.227-.742-.809-.727-1.453-.773a3.418,3.418,0,0,0-1.33.175,1.139,1.139,0,0,0-.613.515,5.755,5.755,0,0,0-.263,2.211C320.716,283.338,320.68,284.111,320.67,284.884Z" transform="translate(-163.13 -161.956)" fill="#685261"/>
      <path id="Path_646" data-name="Path 646" d="M135.111,258.52c-.582.624-1.16,1.252-1.706,1.907a13.792,13.792,0,0,0-1.5,1.644,2.062,2.062,0,0,0-.33,1.335,1.371,1.371,0,0,0,1.928.99c.814-.314,1.361-1.185,1.917-1.809Zm-1.366,4.834a.716.716,0,0,1-.448.392.7.7,0,0,1-.763-.356.85.85,0,0,1,.067-.861.727.727,0,0,1,1.072-.134.747.747,0,0,1,.144.356A1.031,1.031,0,0,1,133.746,263.354Z" transform="translate(-71.486 -151.723)" fill="#8b7481"/>
      <path id="Path_647" data-name="Path 647" d="M165.126,297.79a2.819,2.819,0,0,1-.088.361,2.242,2.242,0,0,1-.979,1.314,2.925,2.925,0,0,1-.825.273,26.014,26.014,0,0,1-5.071.155H146.608a7.861,7.861,0,0,1-1.969,0,1.938,1.938,0,0,1-1.093-1.031,3.764,3.764,0,0,1-.216-.515,3.758,3.758,0,0,0,.551.036c4.587.041,9.179.082,13.766.062a26.629,26.629,0,0,0,6.746-.366,4.1,4.1,0,0,0,.732-.289Z" transform="translate(-77.19 -170.754)" fill="#685261"/>
      <path id="Path_648" data-name="Path 648" d="M133.53,267.13c.572.4,1.16.788,1.747,1.17" transform="translate(-72.441 -155.896)" fill="none" stroke="#6dadad" stroke-linecap="round" stroke-linejoin="round" stroke-width="1.15"/>
      <path id="Path_649" data-name="Path 649" d="M375.068,148.711c2-4.819,3.938-9.983,4.391-15.214.387-4.479-4.639-4.087-7.788-4.819-2.809-.655-5.834-1.7-6.7-4.783-.438-1.546.155-3.608-.8-5.046-.649-.959-4.164-2.494-5.37-1.691-1.211-.8-4.726.732-5.376,1.691-.953,1.417-.361,3.474-.8,5.046-.856,3.092-3.881,4.123-6.7,4.783-3.154.732-8.174.34-7.788,4.819.454,5.231,2.386,10.4,4.391,15.214,1.51,3.608,2.9,7.494,4.123,11.241,1.062,3.3,1.778,7.148.459,10.473a52.349,52.349,0,0,1-3.092,5.427c-1.649,3.139-1.995,6.545-2.628,9.968a79.1,79.1,0,0,0-1.093,16.73.865.865,0,0,0,.1.459.907.907,0,0,0,.33.258c2.881,1.546,6.216,1.794,9.421,1.964.624.031,6.875.546,8.643.49,1.768.057,8.019-.459,8.638-.49,3.206-.17,6.54-.412,9.421-1.964a.906.906,0,0,0,.33-.258.866.866,0,0,0,.1-.459,79.433,79.433,0,0,0-1.082-16.73c-.639-3.422-.984-6.829-2.634-9.968a58.759,58.759,0,0,1-3.067-5.427c-1.324-3.324-.608-7.174.454-10.473C372.171,156.2,373.558,152.334,375.068,148.711Z" transform="translate(-171.586 -83.109)" fill="#594553"/>
      <rect id="Rectangle_27" data-name="Rectangle 27" width="3.221" height="77.721" transform="translate(185.562 81.249)" fill="#594553"/>
      <path id="Path_650" data-name="Path 650" d="M377.7,361.136h-5.979a.686.686,0,0,1-.722-.686h0a.691.691,0,0,1,.691-.691H377.7a.691.691,0,0,1,.691.691h0a.685.685,0,0,1-.691.686Z" transform="translate(-187.52 -200.785)" fill="#594553"/>
      <path id="Path_651" data-name="Path 651" d="M375.567,369.6h0a2.758,2.758,0,0,1-2.757-2.757V361.1h5.52v5.747a2.757,2.757,0,0,1-2.763,2.757Z" transform="translate(-188.398 -201.434)" fill="#594553"/>
      <path id="Path_652" data-name="Path 652" d="M357.533,365.11s-4.6,3.221-5.52,3.912a4.438,4.438,0,0,0-2.3,4.365c0,2.989.232,5.752-.923,6.442s-3.907,2.062-5.288,2.757c-1.1.551-1.907.809-2.19,2.18a1.031,1.031,0,0,0,1.031,1.268h1.814a3.375,3.375,0,0,0,1.824-.515,12.951,12.951,0,0,0,3.958-3.608,21.408,21.408,0,0,0,1.953-7.014c.232-1.861,1.093-4.422,5.721-4.51Z" transform="translate(-173.121 -203.378)" fill="#594553"/>
      <path id="Path_653" data-name="Path 653" d="M383.162,365.11s4.6,3.221,5.52,3.912a4.438,4.438,0,0,1,2.3,4.365c0,2.989-.232,5.752.917,6.442s3.912,2.062,5.288,2.757c1.1.551,1.912.809,2.2,2.18a1.031,1.031,0,0,1-1.031,1.268h-1.814a3.349,3.349,0,0,1-1.824-.515,12.835,12.835,0,0,1-3.958-3.608A21.41,21.41,0,0,1,388.8,374.9c-.232-1.861-1.093-4.422-5.721-4.51Z" transform="translate(-193.375 -203.378)" fill="#594553"/>
      <path id="Path_654" data-name="Path 654" d="M373.83,110.57l-1.6-3.731a2.015,2.015,0,0,1,.381-2.17,3.922,3.922,0,0,1,2.577-1.459,4.083,4.083,0,0,1,2.639,1.5,2.02,2.02,0,0,1,.407,2.092L376.8,110.57Z" transform="translate(-188.036 -76.459)" fill="#594553"/>
      <path id="Path_655" data-name="Path 655" d="M384.387,217.43a59.163,59.163,0,0,1-.479,8.246l-.1.747c-.742,5.288-.861,9.834-3.407,14.7A69.493,69.493,0,0,1,372,252.9a5.358,5.358,0,0,1-2.232,1.861,5.068,5.068,0,0,1-3.664-.644,49.091,49.091,0,0,1-16.951-13.246c-.361-.448-.722-.9-1.067-1.361-6.582-8.633-10.983-19.394-20.208-25.048-3.34-2.062-5.272-3.541-4.2-7.8,1.469-5.819,4.422-11.091,7.308-16.307,2.814-5.077,4.927-10.251,7.267-15.524a7.975,7.975,0,0,0,.551-1.814,5.386,5.386,0,0,0,.041-1.644c-.2-1.613-1.1-2.969-1.814-4.639a67.988,67.988,0,0,1-2.428-7.561,9.247,9.247,0,0,0-.608-2.108c-.206-.7-.4-1.412-.6-2.113q-.6-2.113-1.191-4.231c-.381-1.356-.752-2.716-1.149-4.066a26,26,0,0,0-1.093-3.278c-.118-.283-.35-.582-.268-.907a1.03,1.03,0,0,1,.34-.474,8.983,8.983,0,0,1,4.979-1.9c.722-.077,1.216.752,1.7,1.2.68.634,1.392,1.227,2.129,1.794a28.215,28.215,0,0,0,5.092,3.19,17.185,17.185,0,0,0,15.565,0,27.449,27.449,0,0,0,4.824-3l.258-.191c.737-.567,1.453-1.16,2.129-1.794.484-.443.979-1.273,1.7-1.2a9.871,9.871,0,0,1,4.906,1.747,1.2,1.2,0,0,1,.448.752c.057.546-.438,1.175-.618,1.69-.263.722-.515,1.453-.716,2.18-.428,1.412-.809,2.84-1.206,4.257l-1.19,4.267c-.2.7-.4,1.412-.6,2.113a8.784,8.784,0,0,0-.619,2.108,65.9,65.9,0,0,1-2.427,7.561c-.711,1.654-1.613,3.01-1.814,4.639a5.383,5.383,0,0,0,.041,1.644,7.622,7.622,0,0,0,.557,1.814c.995,2.3,2.943,4.231,4.407,6.185,1.6,2.129,3.438,4.278,5.025,6.489a63.208,63.208,0,0,1,5.989,11.339c.175.4.34.8.515,1.2s.289.732.433,1.1a.657.657,0,0,0,.036.108c.129.345.247.7.371,1.057s.211.649.314.969c.124.4.242.809.356,1.216a50.207,50.207,0,0,1,1.768,12.9Z" transform="translate(-164.443 -94.331)" fill="#85c0c3"/>
      <path id="Path_656" data-name="Path 656" d="M407.013,217.464a59.159,59.159,0,0,1-.479,8.246l-.1.747c-.742,5.288-.861,9.834-3.407,14.7a69.491,69.491,0,0,1-8.4,11.777,5.358,5.358,0,0,1-2.232,1.861,5.068,5.068,0,0,1-3.664-.644,48.207,48.207,0,0,1-10.931-7.092,1.357,1.357,0,0,1-.1-.433c-.155-2.1,3.386-4.706,4.5-6.277a58.758,58.758,0,0,0,5.319-9.241,33.5,33.5,0,0,0,2.623-7.9,48.1,48.1,0,0,0,.469-9c-.1-8.9.119-18.693-4.355-26.6-2.015-3.551-3.742-6.87-6.7-9.792-1.964-1.969-6.489-6.4-9.478-6.458,4.206.077,8.035-2.752,10.308-6.293,3.376-5.231,4.309-11.926,5.669-17.9.222-.959.515-2.319.871-3.819l.258-.191c.737-.567,1.453-1.16,2.129-1.794.485-.443.979-1.273,1.7-1.2a9.871,9.871,0,0,1,4.906,1.747,1.2,1.2,0,0,1,.448.752c.057.546-.438,1.175-.618,1.691-.263.722-.515,1.453-.716,2.18-.428,1.412-.809,2.84-1.206,4.257l-1.16,4.231c-.2.7-.4,1.412-.6,2.113a8.784,8.784,0,0,0-.619,2.108,65.9,65.9,0,0,1-2.427,7.561c-.711,1.654-1.613,3.01-1.814,4.639a5.386,5.386,0,0,0,.041,1.644,7.624,7.624,0,0,0,.557,1.814c.995,2.3,2.943,4.231,4.407,6.185,1.6,2.129,3.438,4.278,5.025,6.489a63.2,63.2,0,0,1,5.989,11.339c.175.4.34.8.515,1.2s.289.732.433,1.1a.659.659,0,0,0,.036.108c.129.345.247.7.371,1.057s.211.649.314.969c.124.4.242.809.356,1.216a36.464,36.464,0,0,1,1.2,7.556A53.065,53.065,0,0,0,407.013,217.464Z" transform="translate(-187.07 -94.365)" fill="#6dadad" opacity="0.5"/>
      <path id="Path_657" data-name="Path 657" d="M379.159,204.258H352.24a8.058,8.058,0,0,0,.551-1.814,5.384,5.384,0,0,0,.041-1.644h25.728a5.386,5.386,0,0,0,.041,1.644A7.7,7.7,0,0,0,379.159,204.258Z" transform="translate(-178.429 -123.752)" fill="#58a5a5"/>
      <path id="Path_658" data-name="Path 658" d="M408.33,143.78a18.683,18.683,0,0,1-2.438,3.4A18.427,18.427,0,0,1,402.8,150c.871-1.1,1.794-2.123,2.706-3.159S407.335,144.775,408.33,143.78Z" transform="translate(-202.931 -96.119)" fill="#6dadad"/>
      <path id="Path_659" data-name="Path 659" d="M404.6,152.67a21.647,21.647,0,0,1-7.118,7.386c1.221-1.216,2.453-2.386,3.608-3.608S403.417,153.938,404.6,152.67Z" transform="translate(-200.353 -100.428)" fill="#6dadad"/>
      <path id="Path_660" data-name="Path 660" d="M406.2,155.94a39.128,39.128,0,0,1-7.654,10.225c1.263-1.727,2.577-3.4,3.835-5.108S404.9,157.636,406.2,155.94Z" transform="translate(-200.871 -102.012)" fill="#6dadad"/>
      <path id="Path_661" data-name="Path 661" d="M403.269,172.62a14.73,14.73,0,0,1-.814,1.515c-.289.49-.608.969-.948,1.433a7.675,7.675,0,0,1-2.546,2.319c.387-.428.758-.85,1.108-1.289s.691-.886,1.031-1.34A23.355,23.355,0,0,1,403.269,172.62Z" transform="translate(-201.07 -110.095)" fill="#6dadad"/>
      <path id="Path_662" data-name="Path 662" d="M341.89,144.58a15.554,15.554,0,0,0,2.989,3.366c1.129.99,2.366,1.871,3.525,2.881a17.629,17.629,0,0,1-3.865-2.495,10.765,10.765,0,0,1-1.582-1.7A7.015,7.015,0,0,1,341.89,144.58Z" transform="translate(-173.414 -96.507)" fill="#6dadad"/>
      <path id="Path_663" data-name="Path 663" d="M341.53,147.58a23.136,23.136,0,0,0,3.974,4.329c1.464,1.33,2.912,2.685,4.247,4.159a58.611,58.611,0,0,1-4.592-3.778,20.577,20.577,0,0,1-2.062-2.154A9.9,9.9,0,0,1,341.53,147.58Z" transform="translate(-173.239 -97.961)" fill="#6dadad"/>
      <path id="Path_664" data-name="Path 664" d="M342.06,155.51a30.752,30.752,0,0,0,4.2,3.912c1.5,1.191,3.092,2.273,4.6,3.489a29.416,29.416,0,0,1-4.922-3.092A15.062,15.062,0,0,1,342.06,155.51Z" transform="translate(-173.496 -101.804)" fill="#6dadad"/>
      <path id="Path_665" data-name="Path 665" d="M358.32,180.28c1.237.68,2.417,1.392,3.639,2.062s2.443,1.294,3.68,1.979a16.04,16.04,0,0,1-7.319-4.03Z" transform="translate(-181.376 -113.808)" fill="#6dadad"/>
      <path id="Path_666" data-name="Path 666" d="M354.387,210.83c-1.366,2.953-2.85,5.845-4.268,8.762s-2.86,5.834-4.185,8.793-2.649,5.927-3.84,8.947a65.871,65.871,0,0,0-2.994,9.251c.155-.794.3-1.6.474-2.391l.613-2.366.732-2.33c.258-.773.515-1.546.8-2.309,1.118-3.056,2.407-6.051,3.742-9.014s2.8-5.875,4.3-8.762l2.283-4.309Z" transform="translate(-172.061 -128.612)" fill="#6dadad"/>
      <path id="Path_667" data-name="Path 667" d="M352.963,212.73c-.515.995-1.031,1.964-1.582,2.943l-1.577,2.933-1.546,2.943-.778,1.474c-.273.515-.515.984-.8,1.474.17-.515.376-1.031.567-1.577s.433-1.031.654-1.546c.443-1.031.943-2.02,1.469-3.01s1.088-1.953,1.69-2.891S352.272,213.606,352.963,212.73Z" transform="translate(-175.735 -129.533)" fill="#6dadad"/>
      <path id="Path_668" data-name="Path 668" d="M338.271,248.36c-.562,1.438-1.18,2.824-1.758,4.231s-1.149,2.814-1.783,4.226A21.064,21.064,0,0,1,338.271,248.36Z" transform="translate(-169.944 -146.8)" fill="#6dadad"/>
      <path id="Path_669" data-name="Path 669" d="M386.152,264.85l2.015,20.616c-.185-.845-.33-1.7-.49-2.546l-.407-2.577c-.263-1.711-.459-3.427-.634-5.154s-.3-3.438-.376-5.154S386.121,266.582,386.152,264.85Z" transform="translate(-194.859 -154.791)" fill="#6dadad"/>
      <path id="Path_670" data-name="Path 670" d="M417.42,263.45c.8,1.871,1.5,3.783,2.134,5.716s1.17,3.9,1.654,5.876a60.684,60.684,0,0,1,1.134,6q.2,1.515.345,3.036c.077,1.031.149,2.031.17,3.046-.072-.515-.139-1.005-.2-1.51l-.216-1.51-.232-1.5-.258-1.5c-.361-1.995-.758-3.979-1.242-5.948s-.979-3.927-1.546-5.881S418.023,265.393,417.42,263.45Z" transform="translate(-210.016 -154.112)" fill="#6dadad"/>
      <path id="Path_671" data-name="Path 671" d="M425.3,251.77c.634,1.742,1.185,3.51,1.7,5.288s.964,3.608,1.376,5.386.768,3.608,1.067,5.453c.144.917.284,1.83.418,2.747s.232,1.84.314,2.763l-1.124-5.432c-.387-1.809-.768-3.608-1.18-5.417s-.83-3.608-1.252-5.4Z" transform="translate(-213.835 -148.452)" fill="#6dadad"/>
      <path id="Path_672" data-name="Path 672" d="M402.54,212.93c.783,1.242,1.52,2.515,2.221,3.809s1.361,2.608,1.958,3.953a34.816,34.816,0,0,1,1.546,4.123l.3,1.062.263,1.077c.139.722.273,1.448.356,2.18-.1-.356-.2-.711-.289-1.067l-.314-1.031-.33-1.031-.361-1.031c-.515-1.376-1.031-2.726-1.634-4.066s-1.211-2.654-1.835-3.984S403.138,214.275,402.54,212.93Z" transform="translate(-202.805 -129.63)" fill="#6dadad"/>
      <path id="Path_673" data-name="Path 673" d="M397.76,212a47.226,47.226,0,0,1,2.062,4.824c.3.82.593,1.639.855,2.474.134.417.263.835.381,1.252l.175.634.088.32a.268.268,0,0,1,0,.18c-.036.067-.155.031-.129-.031,0,.062.093.052.093,0a.211.211,0,0,0-.041-.139l-.139-.3-.284-.593c-.175-.4-.356-.8-.515-1.2-.34-.8-.654-1.618-.964-2.438A46.493,46.493,0,0,1,397.76,212Z" transform="translate(-200.489 -129.179)" fill="#6dadad"/>
      <path id="Path_674" data-name="Path 674" d="M389,213.08c.515,1.969.9,3.974,1.232,5.984a58.5,58.5,0,0,1,.722,6.066c-.515-1.979-.9-3.979-1.232-5.984A58,58,0,0,1,389,213.08Z" transform="translate(-196.243 -129.703)" fill="#6dadad"/>
      <rect id="Rectangle_28" data-name="Rectangle 28" width="31.81" height="4.288" rx="2.144" transform="translate(50.864 180.235)" fill="#685261"/>
      <path id="Path_675" data-name="Path 675" d="M144.808,392.6a3.172,3.172,0,0,1-.649.314,11.4,11.4,0,0,1-3.654.175l-8.318.026-9.318.036a11.151,11.151,0,0,1-4.762-.691c-1.928-.881-1.783-1.763-1.386-3.608a7.061,7.061,0,0,1,1.675-3.092,15.74,15.74,0,0,1,7.664-4.685,18.373,18.373,0,0,1,5.443-.737,17.341,17.341,0,0,1,4.123.381,19.3,19.3,0,0,1,4.716,1.51,10.447,10.447,0,0,1,4.948,6.18h0a8.9,8.9,0,0,1,.294,2.5A1.783,1.783,0,0,1,144.808,392.6Z" transform="translate(-64.175 -210.752)" fill="#85c0c3"/>
      <path id="Path_676" data-name="Path 676" d="M145.548,389.624h0a10.447,10.447,0,0,0-4.979-6.216,7.972,7.972,0,0,0-1.392-.629,10.127,10.127,0,0,1,3.809,5.448h0a9.336,9.336,0,0,1,.294,2.5,1.783,1.783,0,0,1-.778,1.66,3.17,3.17,0,0,1-.649.309,11.135,11.135,0,0,1-3.659.175l-8.318.031-9.318.036A15.3,15.3,0,0,1,117,392.66a3.041,3.041,0,0,0,1.355.995,11.393,11.393,0,0,0,4.762.691l9.318-.036,8.318-.026a11.238,11.238,0,0,0,3.654-.175,3.18,3.18,0,0,0,.649-.314,1.783,1.783,0,0,0,.778-1.66A8.9,8.9,0,0,0,145.548,389.624Z" transform="translate(-64.43 -211.941)" fill="#6dadad" opacity="0.5"/>
      <path id="Path_677" data-name="Path 677" d="M132.8,387.372c-.186-.814-.68-3.5-1.082-5.669-.191-1.031-.35-1.938-.428-2.319l.618-.124c.077.387.242,1.289.433,2.33.376,2.062.886,4.839,1.072,5.643Z" transform="translate(-71.355 -210.235)" fill="#594553"/>
      <path id="Path_678" data-name="Path 678" d="M130.079,377.707a.762.762,0,0,0,.046.263.706.706,0,0,0,.407.35,1.031,1.031,0,0,0,.845,0,.67.67,0,0,0,.366-.716C131.517,376.707,130.038,376.635,130.079,377.707Z" transform="translate(-70.768 -209.1)" fill="#58a5a5"/>
      <path id="Path_679" data-name="Path 679" d="M143.269,382.536h-.629c.072-2.577.17-7.731,0-8.6l.618-.124C143.485,374.97,143.279,382.226,143.269,382.536Z" transform="translate(-76.855 -207.594)" fill="#594553"/>
      <path id="Path_680" data-name="Path 680" d="M141.42,372.181a.763.763,0,0,0,.046.263.706.706,0,0,0,.407.35,1.031,1.031,0,0,0,.845,0,.67.67,0,0,0,.366-.716C142.858,371.191,141.394,371.109,141.42,372.181Z" transform="translate(-76.264 -206.423)" fill="#58a5a5"/>
      <path id="Path_681" data-name="Path 681" d="M135.236,376.716c-.082-.278-1.989-6.772-2.216-7.932l.618-.124c.222,1.134,2.18,7.808,2.2,7.875Z" transform="translate(-72.193 -205.098)" fill="#594553"/>
      <path id="Path_682" data-name="Path 682" d="M131.81,367.067a.746.746,0,0,0,.052.263.706.706,0,0,0,.407.351,1,1,0,0,0,.84,0,.66.66,0,0,0,.366-.716C133.253,366.067,131.789,366,131.81,367.067Z" transform="translate(-71.607 -203.943)" fill="#58a5a5"/>
      <path id="Path_683" data-name="Path 683" d="M124.391,384.178c-.057-.155-1.484-3.84-1.711-5.01l.618-.119c.216,1.113,1.67,4.865,1.685,4.9Z" transform="translate(-67.183 -210.133)" fill="#594553"/>
      <path id="Path_684" data-name="Path 684" d="M121.46,377.431a.624.624,0,0,0,.046.253.707.707,0,0,0,.407.34.634.634,0,0,0,.943-.392.454.454,0,0,0,0-.206.876.876,0,0,0-.149-.515C122.31,376.312,121.444,376.828,121.46,377.431Z" transform="translate(-66.591 -208.967)" fill="#58a5a5"/>
      <path id="Path_685" data-name="Path 685" d="M120.97,389.233c-.108-.18-2.613-4.484-2.85-5.669l.618-.124a37.87,37.87,0,0,0,2.773,5.489Z" transform="translate(-64.973 -212.261)" fill="#594553"/>
      <path id="Path_686" data-name="Path 686" d="M116.91,381.787a.685.685,0,0,0,.052.247.716.716,0,0,0,.407.345.629.629,0,0,0,.938-.392.572.572,0,0,0,.031-.206.928.928,0,0,0-.149-.515C117.76,380.663,116.894,381.173,116.91,381.787Z" transform="translate(-64.386 -211.076)" fill="#58a5a5"/>
      <path id="Path_687" data-name="Path 687" d="M151.068,391.489l-.618-.144c.417-1.809,1.18-5.154,1.381-6.185l.618.124C152.192,386.582,151.115,391.288,151.068,391.489Z" transform="translate(-80.64 -213.094)" fill="#594553"/>
      <path id="Path_688" data-name="Path 688" d="M153.965,383.555a.608.608,0,0,1-.454.613,1.031,1.031,0,0,1-.845,0,.675.675,0,0,1-.366-.722C152.527,382.555,153.991,382.478,153.965,383.555Z" transform="translate(-81.532 -211.932)" fill="#58a5a5"/>
      <path id="Path_689" data-name="Path 689" d="M149.933,380.636l-.6-.18c0-.067,1.979-6.741,2.2-7.875l.618.124C151.922,373.863,150.015,380.357,149.933,380.636Z" transform="translate(-80.097 -206.998)" fill="#594553"/>
      <path id="Path_690" data-name="Path 690" d="M154.428,370.995a.634.634,0,0,1-.046.258.732.732,0,0,1-.407.356,1.031,1.031,0,0,1-.845,0,.665.665,0,0,1-.361-.722C152.991,369.995,154.454,369.918,154.428,370.995Z" transform="translate(-81.758 -205.845)" fill="#58a5a5"/>
      <path id="Path_691" data-name="Path 691" d="M160.005,385.721l-.515-.387c1.392-1.783,4.123-5.381,4.51-6.185l.572.273C164.067,380.5,160.17,385.51,160.005,385.721Z" transform="translate(-85.021 -210.182)" fill="#594553"/>
      <path id="Path_692" data-name="Path 692" d="M169.5,377.945a.64.64,0,0,1-.108.232.716.716,0,0,1-.479.227.629.629,0,0,1-.814-.613.517.517,0,0,1,0-.211.908.908,0,0,1,.273-.464C168.966,376.641,169.672,377.357,169.5,377.945Z" transform="translate(-89.188 -209.12)" fill="#58a5a5"/>
      <path id="Path_693" data-name="Path 693" d="M157.718,376.474l-.6-.211c0-.072,2.515-7.179,2.726-8.3l.618.119C160.243,369.243,157.821,376.175,157.718,376.474Z" transform="translate(-83.872 -204.759)" fill="#594553"/>
      <path id="Path_694" data-name="Path 694" d="M163.467,366.279a.633.633,0,0,1-.046.258.706.706,0,0,1-.407.34.629.629,0,0,1-.943-.381.57.57,0,0,1-.031-.206.927.927,0,0,1,.149-.515C162.612,365.186,163.478,365.692,163.467,366.279Z" transform="translate(-86.256 -203.573)" fill="#58a5a5"/>
      <rect id="Rectangle_29" data-name="Rectangle 29" width="2.598" height="0.629" transform="matrix(0.142, -0.99, 0.99, 0.142, 68.276, 170.035)" fill="#594553"/>
      <path id="Path_695" data-name="Path 695" d="M148.888,374.292a.861.861,0,0,1,.031.258.706.706,0,0,1-.289.443.629.629,0,0,1-1.031-.088.515.515,0,0,1-.088-.191.922.922,0,0,1,0-.541C147.744,373.472,148.718,373.7,148.888,374.292Z" transform="translate(-79.197 -207.56)" fill="#58a5a5"/>
      <path id="Path_696" data-name="Path 696" d="M164.564,391.971l-.464-.428a36.972,36.972,0,0,0,3.86-4.783l.577.247C168.043,388.131,164.693,391.811,164.564,391.971Z" transform="translate(-87.255 -213.869)" fill="#594553"/>
      <path id="Path_697" data-name="Path 697" d="M172.768,385.5a.618.618,0,0,1-.1.232.7.7,0,0,1-.469.253.634.634,0,0,1-.84-.577.577.577,0,0,1,0-.211.928.928,0,0,1,.253-.474C172.2,384.217,172.912,384.9,172.768,385.5Z" transform="translate(-90.769 -212.795)" fill="#58a5a5"/>
      <path id="Path_698" data-name="Path 698" d="M269.5,405.086c-.134,1.18.129,1.907,1.268,1.969q2.319.131,4.639.129c2.948,0,5.912,0,8.839-.149,1.288-.062.9-1.113.716-2.134" transform="translate(-138.317 -222.66)" fill="#685261"/>
      <path id="Path_699" data-name="Path 699" d="M285.466,375.184a1.62,1.62,0,0,1-.649.459c-1.371.588-2.577.371-4.046.4-1.855.036-3.711-.031-5.566,0l-9.318.175a1.271,1.271,0,0,1-1.453-1.794c.294-2.51.258-5.051.552-7.551.283-2.381.17-4.793.361-7.215.18-2.3.4-4.6.412-6.917a26.177,26.177,0,0,1,.665-5.669c.624-2.732,4.494-2.123,6.546-2.036,1.969.088,3.938.18,5.912.263,1.8.072,4.257-.242,4.834,1.984a10.825,10.825,0,0,1,.3,3.608,60.676,60.676,0,0,0,.515,12.421c.253,2.087.515,4.17.752,6.257.129,1.2.18,2.4.253,3.608C285.59,373.973,285.873,374.658,285.466,375.184Z" transform="translate(-135.858 -193.594)" fill="#85c0c3"/>
      <path id="Path_700" data-name="Path 700" d="M285.548,373.532c-.072-1.2-.124-2.4-.253-3.608-.222-2.087-.515-4.17-.752-6.257a58.258,58.258,0,0,1-.515-12.421,10.825,10.825,0,0,0-.3-3.608c-.49-1.876-2.309-1.948-3.948-1.969a10.659,10.659,0,0,1,.232,3.309,60.774,60.774,0,0,0,.515,12.421,20.39,20.39,0,0,1,.361,5.669,12.848,12.848,0,0,1-2.474,5.551c-1,1.361-1.871,1.5-3.453,1.495-1.258,0-2.515-.026-3.768,0l-6.7.129a4.839,4.839,0,0,1-.052.515c-.067.552-.1,1.211.335,1.546a1.7,1.7,0,0,0,1.118.247l9.318-.175c1.855-.036,3.711.031,5.566,0,1.453-.031,2.675.186,4.046-.4a1.619,1.619,0,0,0,.649-.459C285.878,375.022,285.595,374.336,285.548,373.532Z" transform="translate(-135.863 -193.957)" fill="#6dadad" opacity="0.5"/>
      <path id="Path_701" data-name="Path 701" d="M278.77,344.356a1.763,1.763,0,0,1,1.072-.711,5.059,5.059,0,0,1,1.309-.119h1.974c.876,0,2.062.031,2.293,1.108" transform="translate(-142.825 -192.916)" fill="#685261"/>
      <path id="Path_702" data-name="Path 702" d="M283.77,348.11l7.056,2.355a3.235,3.235,0,0,1,.984.454" transform="translate(-145.248 -195.139)" fill="none" stroke="#6dadad" stroke-linecap="round" stroke-linejoin="round" stroke-width="0.75"/>
      <path id="Path_703" data-name="Path 703" d="M270.82,353.31c3.19,1.34,13.472,6.571,15.091,7.179" transform="translate(-138.972 -197.659)" fill="none" stroke="#6dadad" stroke-linecap="round" stroke-linejoin="round" stroke-width="0.75"/>
      <path id="Path_704" data-name="Path 704" d="M271.73,357.67c3.092,1.732,13.091,6.051,13.952,6.386" transform="translate(-139.413 -199.772)" fill="none" stroke="#6dadad" stroke-linecap="round" stroke-linejoin="round" stroke-width="0.75"/>
      <path id="Path_705" data-name="Path 705" d="M270.12,360.32c2.835,1.448,12.529,5.561,15.426,6.829" transform="translate(-138.633 -201.056)" fill="none" stroke="#6dadad" stroke-linecap="round" stroke-linejoin="round" stroke-width="0.75"/>
      <path id="Path_706" data-name="Path 706" d="M270.71,370.43a83.278,83.278,0,0,0,7.664,3.608c2.7,1.154,5.339,2.525,7.947,3.845" transform="translate(-138.919 -205.956)" fill="none" stroke="#6dadad" stroke-linecap="round" stroke-linejoin="round" stroke-width="0.75"/>
      <path id="Path_707" data-name="Path 707" d="M275.66,376.16c2.092,1.371,11.04,5.412,13.158,6.525" transform="translate(-141.318 -208.733)" fill="none" stroke="#6dadad" stroke-linecap="round" stroke-linejoin="round" stroke-width="0.75"/>
      <path id="Path_708" data-name="Path 708" d="M271.82,377.12c3.046,1.489,14.369,6.917,16.245,7.437" transform="translate(-139.457 -209.198)" fill="none" stroke="#6dadad" stroke-linecap="round" stroke-linejoin="round" stroke-width="0.75"/>
      <path id="Path_709" data-name="Path 709" d="M269.58,386.65c1.268.954,16.085,7.638,16.668,7.824" transform="translate(-138.371 -213.816)" fill="none" stroke="#6dadad" stroke-linecap="round" stroke-linejoin="round" stroke-width="0.75"/>
      <path id="Path_710" data-name="Path 710" d="M274.35,393.27c1.52.685,4.381,2.026,5.9,2.711,2.3,1.031,2.886,1.35,5.36,2.484" transform="translate(-140.683 -217.024)" fill="none" stroke="#6dadad" stroke-linecap="round" stroke-linejoin="round" stroke-width="0.75"/>
      <path id="Path_711" data-name="Path 711" d="M270.57,394.2c3.819,1.912,6.427,3.134,10.246,5.046" transform="translate(-138.851 -217.475)" fill="none" stroke="#6dadad" stroke-linecap="round" stroke-linejoin="round" stroke-width="0.75"/>
      <path id="Path_712" data-name="Path 712" d="M272.8,350a30.493,30.493,0,0,1,2.824-1.242" transform="translate(-139.932 -195.454)" fill="none" stroke="#6dadad" stroke-linecap="round" stroke-linejoin="round" stroke-width="0.75"/>
      <path id="Path_713" data-name="Path 713" d="M276.67,351.729a10.932,10.932,0,0,1,3.386-1.289" transform="translate(-141.807 -196.268)" fill="none" stroke="#6dadad" stroke-linecap="round" stroke-linejoin="round" stroke-width="0.75"/>
      <path id="Path_714" data-name="Path 714" d="M280.48,353.592a22.937,22.937,0,0,1,4.247-1.412" transform="translate(-143.654 -197.112)" fill="none" stroke="#6dadad" stroke-linecap="round" stroke-linejoin="round" stroke-width="0.75"/>
      <path id="Path_715" data-name="Path 715" d="M286,355.876c1.489-.515,2.989-.959,4.5-1.386" transform="translate(-146.329 -198.231)" fill="none" stroke="#6dadad" stroke-linecap="round" stroke-linejoin="round" stroke-width="0.75"/>
      <path id="Path_716" data-name="Path 716" d="M290.78,358.332l3.36-1.165a3.8,3.8,0,0,1,.974-.247" transform="translate(-148.645 -199.409)" fill="none" stroke="#6dadad" stroke-linecap="round" stroke-linejoin="round" stroke-width="0.75"/>
      <path id="Path_717" data-name="Path 717" d="M295.46,361.561a12.727,12.727,0,0,1,1.814-.711" transform="translate(-150.913 -201.313)" fill="none" stroke="#6dadad" stroke-linecap="round" stroke-linejoin="round" stroke-width="0.75"/>
      <path id="Path_718" data-name="Path 718" d="M272,366.833a15.813,15.813,0,0,1,2.34-.933h.052c.01,0-.031.026-.026,0" transform="translate(-139.544 -203.761)" fill="none" stroke="#6dadad" stroke-linecap="round" stroke-linejoin="round" stroke-width="0.75"/>
      <path id="Path_719" data-name="Path 719" d="M275.11,369a12.265,12.265,0,0,1,2.757-1.067" transform="translate(-141.051 -204.744)" fill="none" stroke="#6dadad" stroke-linecap="round" stroke-linejoin="round" stroke-width="0.75"/>
      <path id="Path_720" data-name="Path 720" d="M280.21,371.344l3.448-1.294" transform="translate(-143.523 -205.772)" fill="none" stroke="#6dadad" stroke-linecap="round" stroke-linejoin="round" stroke-width="0.75"/>
      <path id="Path_721" data-name="Path 721" d="M287.53,372.632c.68-.222,1.355-.459,2.02-.722" transform="translate(-147.07 -206.673)" fill="none" stroke="#6dadad" stroke-linecap="round" stroke-linejoin="round" stroke-width="0.75"/>
      <path id="Path_722" data-name="Path 722" d="M288.4,375.815a30.457,30.457,0,0,1,4.226-1.335" transform="translate(-147.492 -207.918)" fill="none" stroke="#6dadad" stroke-linecap="round" stroke-linejoin="round" stroke-width="0.75"/>
      <path id="Path_723" data-name="Path 723" d="M295,377.767a4.251,4.251,0,0,1,1.433-.567" transform="translate(-150.69 -209.237)" fill="none" stroke="#6dadad" stroke-linecap="round" stroke-linejoin="round" stroke-width="0.75"/>
      <path id="Path_724" data-name="Path 724" d="M298,379.256a5.959,5.959,0,0,1,1.5-.706" transform="translate(-152.144 -209.891)" fill="none" stroke="#6dadad" stroke-linecap="round" stroke-linejoin="round" stroke-width="0.75"/>
      <path id="Path_725" data-name="Path 725" d="M270.16,383.237c1.17-.335,2.015-.417,3.427-.727" transform="translate(-138.653 -211.81)" fill="none" stroke="#6dadad" stroke-linecap="round" stroke-linejoin="round" stroke-width="0.75"/>
      <path id="Path_726" data-name="Path 726" d="M277,385.506a16.623,16.623,0,0,1,2.979-.886" transform="translate(-141.967 -212.832)" fill="none" stroke="#6dadad" stroke-linecap="round" stroke-linejoin="round" stroke-width="0.75"/>
      <path id="Path_727" data-name="Path 727" d="M279.26,388.278c1.5-.49,3.015-.922,4.546-1.288" transform="translate(-143.063 -213.981)" fill="none" stroke="#6dadad" stroke-linecap="round" stroke-linejoin="round" stroke-width="0.75"/>
      <path id="Path_728" data-name="Path 728" d="M286.19,390.793c1.2-.464,2.412-.9,3.639-1.283" transform="translate(-146.421 -215.202)" fill="none" stroke="#6dadad" stroke-linecap="round" stroke-linejoin="round" stroke-width="0.75"/>
      <path id="Path_729" data-name="Path 729" d="M292.36,393.708c.443-.088,2.577-1.2,3.175-1.278" transform="translate(-149.411 -216.617)" fill="none" stroke="#6dadad" stroke-linecap="round" stroke-linejoin="round" stroke-width="0.75"/>
      <path id="Path_730" data-name="Path 730" d="M296.1,396.356a17.217,17.217,0,0,1,3.221-1.546" transform="translate(-151.223 -217.77)" fill="none" stroke="#6dadad" stroke-linecap="round" stroke-linejoin="round" stroke-width="0.75"/>
      <path id="Path_731" data-name="Path 731" d="M271.41,401.425c1.294-.582,2.577-1.139,3.917-1.675" transform="translate(-139.258 -220.164)" fill="none" stroke="#6dadad" stroke-linecap="round" stroke-linejoin="round" stroke-width="0.75"/>
      <path id="Path_732" data-name="Path 732" d="M277.69,403.866a13,13,0,0,1,2.737-.866" transform="translate(-142.302 -221.739)" fill="none" stroke="#6dadad" stroke-linecap="round" stroke-linejoin="round" stroke-width="0.75"/>
      <path id="Path_733" data-name="Path 733" d="M296.257,342.713c-1.031-.552-2.577,2.8-3.9,4.638s-5.046,7.849-5.046,7.849l.515.263s4.479-6.133,5.582-7.509S297.3,343.259,296.257,342.713Zm-1.649,2.407a2.887,2.887,0,0,1,1.232-1.752A2.948,2.948,0,0,1,294.608,345.12Z" transform="translate(-146.964 -192.495)" fill="#685261"/>
      <path id="Path_734" data-name="Path 734" d="M267.339,320.93l-1.958,3.335,2.428-3.087Z" transform="translate(-128.605 -155.544)" fill="#685261"/>
      <path id="Path_735" data-name="Path 735" d="M210.831,391.4l-13.73.144c-.057,0,0-.113-.041-.113a3.4,3.4,0,0,0,.283-1.34,7.732,7.732,0,0,1,.247-1.17c.1-.376.216-.753.309-1.118q.6-2.366,1.2-4.736a22.3,22.3,0,0,1,1.309-4.541,3.726,3.726,0,0,1,4.159-2.268,3.476,3.476,0,0,1,2.577,2.175,7.434,7.434,0,0,1,.392,1.031c.247.825,1.031,4.123,1.3,4.932.361,1.18.649,2.371.984,3.556.052.206.108.417.165.629A28.4,28.4,0,0,0,210.831,391.4Z" transform="translate(-103.228 -208.747)" fill="#9e8a94"/>
      <path id="Path_736" data-name="Path 736" d="M209.976,388.589c-.057-.211-.113-.423-.165-.629-.335-1.185-.624-2.376-.984-3.556-.258-.825-1.057-4.123-1.3-4.932a7.443,7.443,0,0,0-.392-1.031,3.467,3.467,0,0,0-2.577-2.175l-.335-.036a5.093,5.093,0,0,1,.474.814,7.432,7.432,0,0,1,.392,1.031c.253.825,1.031,4.123,1.3,4.932.361,1.18.649,2.371.984,3.556.057.206.108.417.165.629.258.948.515,1.933.85,2.829l-11.055.119a3.364,3.364,0,0,1-.284,1.309c.052,0,0,.113.041.113l13.73-.144C210.486,390.542,210.234,389.537,209.976,388.589Z" transform="translate(-103.223 -208.766)" fill="#937d89"/>
      <path id="Path_737" data-name="Path 737" d="M210.5,390.678c-4.01,1.031-8.246.747-12.369.35.1-.376.216-.752.309-1.118q.6-2.366,1.2-4.736a22.3,22.3,0,0,1,1.309-4.541,15.291,15.291,0,0,0,6.731-.093,7.421,7.421,0,0,1,.392,1.031c.247.825,1.031,4.123,1.3,4.932.361,1.18.649,2.371.984,3.556A4.25,4.25,0,0,0,210.5,390.678Z" transform="translate(-103.746 -210.855)" fill="#8b7780"/>
      <path id="Path_738" data-name="Path 738" d="M205.765,383.53a.392.392,0,1,0,.541-.515C206,382.829,205.636,383.21,205.765,383.53Z" transform="translate(-107.433 -212.031)" fill="#594553"/>
      <path id="Path_739" data-name="Path 739" d="M203.544,382.14a.4.4,0,1,0,.541-.516C203.766,381.439,203.415,381.82,203.544,382.14Z" transform="translate(-106.357 -211.357)" fill="#594553"/>
      <path id="Path_740" data-name="Path 740" d="M215.25,381.918a.4.4,0,0,0,.485.227.407.407,0,0,0,.057-.727C215.482,381.217,215.106,381.6,215.25,381.918Z" transform="translate(-112.027 -211.254)" fill="#594553"/>
      <path id="Path_741" data-name="Path 741" d="M203.208,385.862a.4.4,0,1,0,.541-.515C203.44,385.141,203.089,385.543,203.208,385.862Z" transform="translate(-106.196 -213.157)" fill="#594553"/>
      <path id="Path_742" data-name="Path 742" d="M207.2,385.862a.4.4,0,1,0,.541-.515C207.431,385.141,207.086,385.543,207.2,385.862Z" transform="translate(-108.131 -213.157)" fill="#594553"/>
      <path id="Path_743" data-name="Path 743" d="M211.191,385.862a.4.4,0,1,0,.515-.515C211.423,385.141,211.082,385.543,211.191,385.862Z" transform="translate(-110.066 -213.157)" fill="#594553"/>
      <path id="Path_744" data-name="Path 744" d="M215.182,385.862a.4.4,0,1,0,.541-.515C215.414,385.141,215.079,385.543,215.182,385.862Z" transform="translate(-112.001 -213.157)" fill="#594553"/>
      <path id="Path_745" data-name="Path 745" d="M204.9,388.461a.392.392,0,1,0,.515-.515C205.13,387.739,204.769,388.12,204.9,388.461Z" transform="translate(-107.014 -214.415)" fill="#594553"/>
      <path id="Path_746" data-name="Path 746" d="M208.893,388.461a.392.392,0,1,0,.515-.515C209.12,387.739,208.759,388.12,208.893,388.461Z" transform="translate(-108.948 -214.415)" fill="#594553"/>
      <path id="Path_747" data-name="Path 747" d="M212.883,388.461a.392.392,0,1,0,.515-.515C213.11,387.739,212.749,388.12,212.883,388.461Z" transform="translate(-110.882 -214.415)" fill="#594553"/>
      <path id="Path_748" data-name="Path 748" d="M216.873,388.461a.392.392,0,1,0,.515-.515C217.1,387.739,216.739,388.12,216.873,388.461Z" transform="translate(-112.815 -214.415)" fill="#594553"/>
      <path id="Path_749" data-name="Path 749" d="M201.665,388.466a.4.4,0,0,0,.484.222.407.407,0,0,0,.057-.727C201.9,387.744,201.536,388.125,201.665,388.466Z" transform="translate(-105.446 -214.42)" fill="#594553"/>
      <path id="Path_750" data-name="Path 750" d="M204.9,393.209a.392.392,0,1,0,.515-.515C205.13,392.509,204.769,392.89,204.9,393.209Z" transform="translate(-107.014 -216.721)" fill="#594553"/>
      <path id="Path_751" data-name="Path 751" d="M208.893,393.209a.392.392,0,1,0,.515-.515C209.12,392.509,208.759,392.89,208.893,393.209Z" transform="translate(-108.948 -216.721)" fill="#594553"/>
      <path id="Path_752" data-name="Path 752" d="M213.145,393.215a.4.4,0,0,0,.484.222.407.407,0,0,0,.057-.727C213.377,392.514,213.016,392.9,213.145,393.215Z" transform="translate(-111.01 -216.727)" fill="#594553"/>
      <path id="Path_753" data-name="Path 753" d="M217.513,393.209a.392.392,0,1,0,.515-.515C217.75,392.509,217.379,392.89,217.513,393.209Z" transform="translate(-113.126 -216.721)" fill="#594553"/>
      <path id="Path_754" data-name="Path 754" d="M201.065,393.215a.4.4,0,0,0,.484.222.407.407,0,0,0,.057-.727C201.3,392.514,200.936,392.9,201.065,393.215Z" transform="translate(-105.155 -216.727)" fill="#594553"/>
      <path id="Path_755" data-name="Path 755" d="M204.9,399.345a.392.392,0,0,0,.484.222.407.407,0,0,0,.052-.727C205.13,398.644,204.769,399.025,204.9,399.345Z" transform="translate(-107.015 -219.697)" fill="#594553"/>
      <path id="Path_756" data-name="Path 756" d="M208.893,399.345a.392.392,0,0,0,.484.222.407.407,0,0,0,.052-.727C209.12,398.644,208.759,399.025,208.893,399.345Z" transform="translate(-108.948 -219.697)" fill="#594553"/>
      <path id="Path_757" data-name="Path 757" d="M213.145,399.345a.392.392,0,0,0,.484.222.407.407,0,0,0,.057-.727C213.377,398.644,213.016,399.025,213.145,399.345Z" transform="translate(-111.01 -219.697)" fill="#594553"/>
      <path id="Path_758" data-name="Path 758" d="M217.514,399.345a.392.392,0,0,0,.484.222.407.407,0,0,0,.052-.727C217.751,398.644,217.379,399.025,217.514,399.345Z" transform="translate(-113.126 -219.697)" fill="#594553"/>
      <path id="Path_759" data-name="Path 759" d="M201.065,399.345a.392.392,0,0,0,.484.222.407.407,0,0,0,.057-.727C201.3,398.644,200.936,399.025,201.065,399.345Z" transform="translate(-105.155 -219.697)" fill="#594553"/>
      <path id="Path_760" data-name="Path 760" d="M206.486,395.995a.392.392,0,0,0,.484.222.407.407,0,0,0,.057-.727C206.738,395.294,206.357,395.675,206.486,395.995Z" transform="translate(-107.783 -218.074)" fill="#594553"/>
      <path id="Path_761" data-name="Path 761" d="M210.476,395.995a.392.392,0,0,0,.484.222.407.407,0,0,0,.057-.727C210.734,395.294,210.347,395.675,210.476,395.995Z" transform="translate(-109.717 -218.074)" fill="#594553"/>
      <path id="Path_762" data-name="Path 762" d="M214.725,395.995a.4.4,0,0,0,.49.222.412.412,0,0,0,.052-.727C214.957,395.294,214.6,395.675,214.725,395.995Z" transform="translate(-111.775 -218.074)" fill="#594553"/>
      <path id="Path_763" data-name="Path 763" d="M219.093,395.995a.392.392,0,0,0,.484.222.407.407,0,0,0,.052-.727C219.32,395.294,218.959,395.675,219.093,395.995Z" transform="translate(-113.891 -218.074)" fill="#594553"/>
      <path id="Path_764" data-name="Path 764" d="M202.9,395.95a.392.392,0,1,0,.515-.515C203.137,395.249,202.776,395.636,202.9,395.95Z" transform="translate(-106.047 -218.05)" fill="#594553"/>
      <path id="Path_765" data-name="Path 765" d="M199.967,396.076a.4.4,0,0,0,.484.222.407.407,0,0,0,.057-.727A.393.393,0,0,0,199.967,396.076Z" transform="translate(-104.62 -218.114)" fill="#594553"/>
      <path id="Path_766" data-name="Path 766" d="M202.975,390.65a.392.392,0,1,0,.515-.515C203.207,389.949,202.846,390.33,202.975,390.65Z" transform="translate(-106.081 -215.481)" fill="#594553"/>
      <path id="Path_767" data-name="Path 767" d="M206.973,390.65a.392.392,0,1,0,.515-.515C207.2,389.949,206.839,390.33,206.973,390.65Z" transform="translate(-108.018 -215.481)" fill="#594553"/>
      <path id="Path_768" data-name="Path 768" d="M210.971,390.65a.392.392,0,1,0,.515-.515C211.193,389.949,210.832,390.33,210.971,390.65Z" transform="translate(-109.954 -215.481)" fill="#594553"/>
      <path id="Path_769" data-name="Path 769" d="M214.969,390.65a.392.392,0,1,0,.515-.515C215.186,389.949,214.825,390.33,214.969,390.65Z" transform="translate(-111.891 -215.481)" fill="#594553"/>
      <path id="Path_770" data-name="Path 770" d="M209.5,383.537a.392.392,0,0,0,.484.222.407.407,0,0,0,.057-.722C209.743,382.836,209.367,383.218,209.5,383.537Z" transform="translate(-109.241 -212.038)" fill="#594553"/>
      <path id="Path_771" data-name="Path 771" d="M213.216,383.53a.392.392,0,1,0,.515-.515C213.448,382.829,213.093,383.21,213.216,383.53Z" transform="translate(-111.045 -212.031)" fill="#594553"/>
      <path id="Path_772" data-name="Path 772" d="M211,406.484c.7-1.69-1.788-1.4-2.737-1.4H196.548a1.391,1.391,0,0,0-1.309.814,1.072,1.072,0,0,0,.639,1.144,3.093,3.093,0,0,0,1.392.216h5.9c1.149,0,2.3,0,3.443-.036.572,0,1.144-.046,1.721-.082C209.221,407.092,210.572,407.567,211,406.484Z" transform="translate(-102.339 -222.74)" fill="#594553"/>
    </g>
  </g>
</svg>
