<svg version="1.2" xmlns="http://www.w3.org/2000/svg" viewBox="0 0 3000 1800" width="3000" height="1800">
	<title>na_feb_10-ai</title>
	<style>
		.s0 { fill: transparent} 
		.s1 { fill: #dcecfd } 
		.s2 { opacity: .7;fill: #f1f8fe } 
		.s3 { fill: #324d90 } 
		.s4 { fill: #152e60 } 
		.s5 { fill: #f08f3c } 
		.s6 { fill: #fdf1e6 } 
		.s7 { fill: #f3ac4a } 
		.s8 { fill: #f4d2c6 } 
		.s9 { fill: #eda19d } 
		.s10 { fill: #f3f5fb } 
		.s11 { fill: #e3eaf4 } 
		.s12 { fill: #4292f3 } 
		.s13 { fill: #3c7ed7 } 
		.s14 { fill: #2a437d } 
		.s15 { fill: #59445a } 
		.s16 { fill: #34254b } 
		.s17 { fill: #deeefc } 
		.s18 { fill: #d4e8fc } 
	</style>
	<g id="_Artboards_">
	</g>
	<g id="Layer 1">
		<path id="&lt;Path&gt;" class="s0" d="m2999.8 1800h-3000v-1800h3000z"/>
		<path id="&lt;Path&gt;" class="s1" d="m506.9 1548.4h2185.5l-78-637.5c-85-579.6-715.1-772-1164.8-434.5-182.6 106.2-396.2 139.8-604.8 117.2-406-38.9-689.7 458.5-450.6 788.3 0 0 112.7 166.5 112.7 166.5z"/>
		<g id="&lt;Clip Group&gt;">
			<path id="&lt;Path&gt;" class="s2" d="m506.9 1548.4h2185.5l-78-637.5c-85-579.6-715.1-772-1164.8-434.5-182.6 106.2-396.2 139.8-604.8 117.2-406-38.9-689.7 458.5-450.6 788.3 0 0 112.7 166.5 112.7 166.5z"/>
		</g>
		<g id="&lt;Group&gt;">
			<path id="&lt;Path&gt;" class="s3" d="m2049 681.1h-150.6c-9.1 0-17.1 6.2-19.3 15l-185.6 743.4h13.7l184-737.3c1.1-4.2 4.8-7.1 9.1-7.1h148.7c3.9 0 7-3.1 7-7 0-3.9-3.1-7-7-7z"/>
			<path id="&lt;Path&gt;" class="s3" d="m2585.7 681.7h-150.9c-9.1 0-17 6.2-19.2 15l-185.7 743.4h13.7l184.1-737.3c1-4.1 4.8-7.1 9.1-7.1h148.9c3.9 0 7-3.1 7-7 0-3.9-3.1-7-7-7z"/>
			<g id="&lt;Group&gt;">
				<g id="&lt;Group&gt;">
					<path id="&lt;Path&gt;" class="s4" d="m1881.1 1475.2c-0.3-28.7-11.2-61.6-40.1-71.7-13.2-3-27.2-0.9-40.7-1.4-35.7-5.2-61.3 26.4-62 73.1 0.7 46.7 26.2 78.3 62 73.1 13.5-0.5 27.5 1.6 40.7-1.4 28.7-9.8 40-43.6 40.1-71.7z"/>
					<path id="&lt;Path&gt;" class="s4" d="m1626.4 1443.5c-6.5-20.1-22.4-41.4-45.3-41.5-14.3 0.1-29.2 0.1-43.2 0-27.6 0.7-49.8 33.9-49.4 74.4 0.5 40 22.8 72.2 50.6 72q21-0.1 42 0c35-1.6 50.4-42.6 50.2-73.2 0-11.4-1.8-22.1-4.9-31.7z"/>
				</g>
				<g id="&lt;Group&gt;">
					<g id="&lt;Group&gt;">
						<path id="&lt;Path&gt;" class="s5" d="m2333.7 1450.2h-361v-445.2h361z"/>
						<path id="&lt;Path&gt;" class="s6" d="m2207.4 1055.8h-42.8v-50.8h42.8z"/>
					</g>
					<g id="&lt;Group&gt;">
						<path id="&lt;Path&gt;" class="s7" d="m2032.5 1450.2h-544v-445.2h544z"/>
						<path id="&lt;Path&gt;" class="s6" d="m1792.7 1055.8h-64.4v-50.8h64.4z"/>
					</g>
				</g>
				<g id="&lt;Group&gt;">
					<g id="&lt;Group&gt;">
						<path id="&lt;Path&gt;" class="s3" d="m2385.6 1471.7h-948.9v-25.4h948.9z"/>
						<path id="&lt;Path&gt;" class="s4" d="m1911.1 1471.7h-474.4v-25.4h474.4z"/>
					</g>
					<g id="&lt;Group&gt;">
						<g id="&lt;Group&gt;">
							<path id="&lt;Path&gt;" class="s4" d="m2303.5 1402q-16.5 0.1-33 0c-74.6-10.6-78.9 144-9.4 146.4q16.5-0.1 33 0c74.6 10.6 78.9-144 9.4-146.4z"/>
							<g id="&lt;Group&gt;">
								<path id="&lt;Path&gt;" class="s3" d="m2353.7 1475.2c-1.3 96.3-99.1 96.3-100.4 0 1.3-96.3 99.1-96.3 100.4 0z"/>
								<path id="&lt;Path&gt;" class="s4" d="m2321.5 1475.2c-0.4 37.1-35.5 37.1-36 0 0.5-37.1 35.6-37.1 36 0z"/>
							</g>
						</g>
						<g id="&lt;Group&gt;">
							<path id="&lt;Path&gt;" class="s4" d="m2053.7 1402q-16.5 0.1-33 0c-74.6-10.6-78.9 144-9.4 146.4q16.5-0.1 33 0c74.6 10.6 78.9-144 9.4-146.4z"/>
							<g id="&lt;Group&gt;">
								<path id="&lt;Path&gt;" class="s3" d="m2103.9 1475.2c-1.3 96.3-99.1 96.3-100.4 0 1.3-96.3 99.1-96.3 100.4 0z"/>
								<path id="&lt;Path&gt;" class="s4" d="m2071.7 1475.2c-0.5 37.1-35.5 37.1-36 0 0.5-37.1 35.5-37.1 36 0z"/>
							</g>
						</g>
					</g>
				</g>
			</g>
		</g>
		<g id="&lt;Group&gt;">
			<g id="&lt;Group&gt;">
				<path id="&lt;Path&gt;" class="s8" d="m1465.7 648.1l-131.1 106.4-42.3-46.4-55 50.2c6.4 7.2 45 49.1 50.2 55.3 21.3 24.9 62.9 25 84.3 0.2 0 0 119.4-132.4 119.4-132.4z"/>
				<g id="&lt;Clip Group&gt;">
					<path id="&lt;Path&gt;" class="s9" d="m1465.7 648.1l-131.1 106.4-42.3-46.4-55 50.2c6.4 7.2 45 49.1 50.2 55.3 21.3 24.9 62.9 25 84.3 0.2 0 0 119.4-132.4 119.4-132.4z"/>
				</g>
				<g id="&lt;Group&gt;">
					<g id="&lt;Group&gt;">
						<path id="&lt;Path&gt;" class="s3" d="m1538 873.3h-121.4c-6.5 0-11.8-5.3-11.8-11.8v-179.1c0-6.6 5.3-11.9 11.8-11.9h121.4c6.5 0 11.8 5.3 11.8 11.9v179.1c0 6.5-5.3 11.8-11.8 11.8z"/>
						<path id="&lt;Path&gt;" class="s10" d="m1535.6 857.8h-116.6v-171.7h116.6z"/>
						<path id="&lt;Path&gt;" class="s4" d="m1497.5 690.9h-40.3c-2.7 0-4.8-2.1-4.8-4.7v-15.4c0-2.6 2.1-4.8 4.8-4.8h40.3c2.6 0 4.7 2.2 4.7 4.8v15.4c0 2.6-2.1 4.7-4.7 4.7z"/>
					</g>
					<g id="&lt;Group&gt;">
						<path id="&lt;Path&gt;" class="s11" d="m1525.7 726.4h-96.8v-11.6h96.8z"/>
						<path id="&lt;Path&gt;" class="s11" d="m1525.7 752.1h-96.8v-11.7h96.8z"/>
						<path id="&lt;Path&gt;" class="s11" d="m1525.7 777.8h-96.8v-11.7h96.8z"/>
						<path id="&lt;Path&gt;" class="s11" d="m1525.7 803.4h-96.8v-11.7h96.8z"/>
						<path id="&lt;Path&gt;" class="s11" d="m1496.8 829.1h-67.9v-11.7h67.9z"/>
					</g>
				</g>
				<path id="&lt;Path&gt;" class="s8" d="m1458.3 661.2c-1.8 15.4 10.8 23.4 22.7 29.4 17.5 10.7 41.7-6.8 36.4-26.8-1.8-14.1-10.9-21-24.1-24.2-14.8-4.8-33.7 5.4-35 21.6z"/>
			</g>
			<path id="&lt;Path&gt;" class="s12" d="m966.6 677.4l142.3-74.7 45.5 86.6-142.4 74.7z"/>
			<path id="&lt;Path&gt;" class="s8" d="m960.7 780.5l46.2-30.9-32.3-56.9c-27.3 16.1-72.3 32.8-71.7 71.2 2.5 15.7-18.1 190.2-1.2 197.7 19.9 22.7 41.9 4.1 60.2-9.4 0 0-25.6-0.2-25.6-0.2z"/>
			<g id="&lt;Clip Group&gt;">
				<path id="&lt;Path&gt;" class="s9" d="m960.7 780.5l46.2-30.9-32.3-56.9c-27.3 16.1-72.3 32.8-71.7 71.2 2.5 15.7-18.1 190.2-1.2 197.7 19.9 22.7 41.9 4.1 60.2-9.4 0 0-25.6-0.2-25.6-0.2z"/>
			</g>
			<path id="&lt;Path&gt;" class="s12" d="m1268 806.5l-113.7-113.7 69.2-69.1 113.6 113.6z"/>
			<path id="&lt;Path&gt;" class="s13" d="m1270.4 804.1l-19.1-104.5 32.3 91.3z"/>
			<path id="&lt;Path&gt;" class="s3" d="m1031.4 858.1l12.2 636.6h42.8l89.7-638.1z"/>
			<g id="&lt;Clip Group&gt;">
				<path id="&lt;Path&gt;" class="s14" d="m1031.4 858.1l12.2 636.6h42.8l89.7-638.1z"/>
			</g>
			<path id="&lt;Path&gt;" class="s3" d="m1273.3 858.1l-12.2 636.6h-44.8l-87.7-638.1z"/>
			<g id="&lt;Clip Group&gt;">
				<path id="&lt;Path&gt;" class="s14" d="m1273.3 858.1l-12.2 636.6h-44.8l-87.7-638.1z"/>
			</g>
			<g id="&lt;Group&gt;">
				<g id="&lt;Group&gt;">
					<g id="&lt;Group&gt;">
						<g id="&lt;Group&gt;">
							<path id="&lt;Path&gt;" class="s9" d="m1110.6 506.1c3.3 19.8-13.8 22.7-17.2 2.9-3.3-19.7 13.7-22.6 17.2-2.9z"/>
							<path id="&lt;Path&gt;" class="s9" d="m1192.5 506.1c-3.3 19.8 13.8 22.7 17.2 2.9 3.3-19.7-13.7-22.6-17.2-2.9z"/>
						</g>
						<g id="&lt;Group&gt;">
							<path id="&lt;Path&gt;" class="s8" d="m1200.3 508.6c-1.2 77.9-96.3 77.9-97.5 0-8.6-79.8 103.5-80.6 97.5 0z"/>
							<g id="&lt;Clip Group&gt;">
								<path id="&lt;Path&gt;" class="s9" d="m1200.3 508.6c-1.2 77.9-96.3 77.9-97.5 0-8.6-79.8 103.5-80.6 97.5 0z"/>
							</g>
							<path id="&lt;Path&gt;" class="s8" d="m1176.8 522.9c-12.7 0-37.8 0-50.5 0 6.1 17.4-7.2 104.5-7.2 104.5 16.3 0 48.6 0 64.9 0 0 0-13.3-87.1-7.2-104.5z"/>
						</g>
					</g>
					<path id="&lt;Path&gt;" class="s9" d="m1127 559.8c0 0 22.9 17.6 49.1 0l1.4 15.8c0 0-28.3 13.2-51.9 0.1z"/>
				</g>
				<path id="&lt;Path&gt;" class="s15" d="m1109.4 466.6c0 0 63.7 6.3 80.2-3.5 16.4-9.8 12.9-42.9 12.9-42.9-9.3 1.4-115.1-1.1-93.1 46.4z"/>
				<path id="&lt;Path&gt;" class="s15" d="m1110.7 445.3c0 0-17.8 5.3-20 12.6-2.1 7.3 12.8 35.5 12.8 35.5 4 0 7.5-2.8 8.4-6.7l5.5-23.8z"/>
				<path id="&lt;Path&gt;" class="s15" d="m1192.3 445.3c0 0 17.8 5.3 20 12.6 2.1 7.3-12.8 35.5-12.8 35.5-4.1 0.1-7.8-3.3-8.4-6.7-0.1-0.5-5.5-23.8-5.5-23.8z"/>
				<path id="&lt;Path&gt;" class="s16" d="m1185.6 464.9c0 0 14.3-8.3 14.7-16.6 0 0 5.4 20-14.7 16.6z"/>
			</g>
			<path id="&lt;Path&gt;" class="s4" d="m1050.8 1494.7l-4.7 16.6-51.1 21.9c-6.1 2.6-10 8.6-10 15.2h105.4l-4-53.7z"/>
			<path id="&lt;Path&gt;" class="s4" d="m1251.9 1494.7l4.7 16.6 51.1 21.9c6 2.6 10 8.6 10 15.2h-105.4l4-53.7z"/>
			<path id="&lt;Path&gt;" class="s12" d="m1252.4 685.5c-9.6-64.1-58.5-96.1-113.2-89-43.8-1.6-83.2 42.8-88.6 89-0.7 4.7-35.7 235.8-35.7 235.8h273.2z"/>
			<g id="&lt;Clip Group&gt;">
				<path id="&lt;Path&gt;" class="s13" d="m1252.4 685.5c-9.6-64.1-58.5-96.1-113.2-89-43.8-1.6-83.2 42.8-88.6 89-0.7 4.7-35.7 235.8-35.7 235.8h273.2z"/>
			</g>
			<g id="&lt;Group&gt;">
				<path id="&lt;Path&gt;" class="s7" d="m1143.4 871.3l-205.4 91.6-75.4-169.1 205.4-91.6z"/>
				<path id="&lt;Path&gt;" class="s6" d="m992.6 766.3l-31.9 14.2-11.3-25.4 31.9-14.2z"/>
			</g>
			<path id="&lt;Path&gt;" class="s8" d="m920.4 937c10.9 2.4 31.8 1.7 33.9 16.5l-33.9 1.7z"/>
			<path id="&lt;Path&gt;" class="s8" d="m1123.1 598.2c9.8 29.2 47.1 29.2 56.9 0 0 0-24.3-13.2-56.9 0z"/>
			<path id="&lt;Path&gt;" class="s14" d="m1032.5 921.4h239.6l-238.6 46.3z"/>
			<path id="&lt;Path&gt;" class="s10" d="m1123.1 598.2l27.1 22-11.2 7.1c-17.9 9.5-20.9-15.4-25.2-26.5 0 0 4.7-2 9.3-2.6z"/>
			<path id="&lt;Path&gt;" class="s10" d="m1157.1 619.7l10.5 6.6c7.5 4.6 17.2 0.3 18.9-8.3l3.2-17c0 0-7.4-2.4-9.7-2.8z"/>
		</g>
		<g id="&lt;Group&gt;">
			<g id="&lt;Group&gt;">
				<path id="&lt;Path&gt;" class="s7" d="m836.2 1548.4h-308.5v-372.7h308.5z"/>
				<path id="&lt;Path&gt;" class="s6" d="m705.8 1211.9h-47.7v-36.2h47.7z"/>
			</g>
			<g id="&lt;Group&gt;">
				<path id="&lt;Path&gt;" class="s5" d="m997.3 1548.4h-161.1v-372.7h161.1z"/>
				<path id="&lt;Path&gt;" class="s6" d="m945.8 1211.9h-40.8v-36.2h40.8z"/>
			</g>
		</g>
		<g id="&lt;Group&gt;">
			<path id="&lt;Path&gt;" class="s0" d="m2076.8 559.8h-363.5c-9.9 0-17.9-8.1-17.9-18v-120.2c0-9.9 8-17.9 17.9-17.9h363.5c9.9 0 18 8 18 17.9v120.2c0 9.9-8.1 18-18 18z"/>
			<g id="&lt;Group&gt;">
				<path id="&lt;Path&gt;" class="s17" d="m2064.2 449.2h-338.2v-19.6h338.2z"/>
				<path id="&lt;Path&gt;" class="s17" d="m2064.2 491.5h-338.2v-19.6h338.2z"/>
				<path id="&lt;Path&gt;" class="s17" d="m1950.5 533.8h-224.5v-19.5h224.5z"/>
			</g>
		</g>
		<g id="&lt;Group&gt;">
			<path id="&lt;Path&gt;" class="s3" d="m823.3 585.6c-27.3 231-158.3 230.8-185.5 0 2.1-121.9 183.4-121.9 185.5 0z"/>
			<path id="&lt;Path&gt;" class="s0" d="m780.2 580.7c-1.1 65.2-98.2 65.2-99.3 0 1.1-65.3 98.2-65.3 99.3 0z"/>
		</g>
		<g id="&lt;Group&gt;">
			<path id="&lt;Path&gt;" class="s18" d="m842.2 1045.2h-285.7c-5.1 0-9.2-4.1-9.2-9.2v-99.6c0-5.1 4.1-9.2 9.2-9.2h285.7c5 0 9.2 4.1 9.2 9.2v99.6c0 5.1-4.2 9.2-9.2 9.2z"/>
			<g id="&lt;Group&gt;">
				<path id="&lt;Path&gt;" class="s0" d="m828 1033.3h-280.4c-7.6 0-13.8-6.2-13.8-13.8v-92.8c0-7.6 6.2-13.8 13.8-13.8h280.4c7.6 0 13.8 6.2 13.8 13.8v92.8c0 7.6-6.2 13.8-13.8 13.8z"/>
				<g id="&lt;Group&gt;">
					<path id="&lt;Path&gt;" class="s17" d="m818.2 948h-260.8v-15.1h260.8z"/>
					<path id="&lt;Path&gt;" class="s17" d="m818.2 980.6h-260.8v-15.1h260.8z"/>
					<path id="&lt;Path&gt;" class="s17" d="m730.5 1013.3h-173.1v-15.1h173.1z"/>
				</g>
			</g>
		</g>
		<g id="&lt;Group&gt;">
			<path id="&lt;Path&gt;" class="s5" d="m1642.5 1227.6h-154v107.9h154c6.8 0 12.4-5.6 12.4-12.4v-83.1c0-6.8-5.6-12.4-12.4-12.4z"/>
			<g id="&lt;Group&gt;">
				<path id="&lt;Path&gt;" class="s0" d="m1627.8 1319.6h-251.1c-6.9 0-12.4-5.6-12.4-12.4v-83.1c0-6.8 5.5-12.4 12.4-12.4h251.1c6.8 0 12.3 5.6 12.3 12.4v83.1c0 6.8-5.5 12.4-12.3 12.4z"/>
				<g id="&lt;Group&gt;">
					<path id="&lt;Path&gt;" class="s17" d="m1619 1243.1h-233.6v-13.5h233.6z"/>
					<path id="&lt;Path&gt;" class="s17" d="m1619 1272.4h-233.6v-13.5h233.6z"/>
					<path id="&lt;Path&gt;" class="s17" d="m1540.5 1301.6h-155.1v-13.5h155.1z"/>
				</g>
			</g>
		</g>
		<g id="&lt;Group&gt;">
			<g id="&lt;Group&gt;">
				<g id="&lt;Group&gt;">
					<path id="&lt;Path&gt;" class="s3" d="m2348.9 522.9l-56.7 114.1c-1.1 2.3-4.4 2.2-5.4-0.1l-14.6-33.4z"/>
					<path id="&lt;Path&gt;" class="s12" d="m2272.2 603.5l-39.5-13.1 116.2-67.5z"/>
					<path id="&lt;Path&gt;" class="s12" d="m2348.9 522.9l-52.4 89.5 47.1 15.8z"/>
				</g>
				<g id="&lt;Group&gt;">
					<path id="&lt;Path&gt;" class="s3" d="m2280.9 665.5l-1.5-0.6q1-2.6 1.9-5.2l1.5 0.6q-0.9 2.6-1.9 5.2z"/>
					<path id="&lt;Compound Path&gt;" class="s3" d="m1535.7 950.9l-0.3-1.6c3.6-0.6 7.2-1.5 10.8-2.6l0.4 1.5c-3.6 1.2-7.3 2.1-10.9 2.7zm15.5-4.3l-0.6-1.5c3.4-1.2 6.8-2.7 10.2-4.5l0.7 1.5c-3.5 1.7-6.9 3.2-10.3 4.5zm14.6-6.8l-0.8-1.4c3.1-1.7 6.2-3.6 9.5-5.8l0.9 1.4c-3.4 2.2-6.5 4.1-9.6 5.8zm13.6-8.5l-0.9-1.3c2.8-2 5.8-4.1 9-6.6l1 1.3c-3.3 2.5-6.3 4.6-9.1 6.6zm12.9-9.5l-1-1.2c3.1-2.4 6.2-4.8 8.8-6.9l1 1.2c-2.6 2.1-5.7 4.5-8.8 6.9zm12.6-9.9l-1-1.2c2.8-2.2 5.8-4.6 8.8-6.9l1 1.3c-3 2.3-6 4.6-8.8 6.8zm12.6-9.7l-1-1.3c3.4-2.5 6.1-4.4 9.2-6.5l0.9 1.3c-3.1 2.1-5.8 4-9.1 6.5zm13.1-9.1l-0.9-1.3c3.2-2.1 6.4-4 9.6-5.9l0.8 1.4c-3.2 1.8-6.4 3.8-9.5 5.8zm13.7-8.1l-0.8-1.4c3.3-1.8 6.7-3.5 10-5l0.7 1.4c-3.3 1.6-6.7 3.2-9.9 5zm298.7-0.4c-0.1 0-1 0-1 0v-1.6c3.7 0 7.5-0.1 11.1-0.3l0.1 1.6c-3.3 0.2-6.8 0.3-10.2 0.3zm-5.9-0.1c-3.7-0.1-7.4-0.4-11.2-0.7l0.2-1.6c3.7 0.3 7.4 0.6 11.1 0.7zm20.8-0.6l-0.1-1.6c3.8-0.4 7.5-0.9 11-1.6l0.3 1.6c-3.6 0.7-7.3 1.2-11.2 1.6zm-36.8-0.5c-3.6-0.3-7.3-0.7-11.1-1.1l0.1-1.6c3.8 0.4 7.6 0.8 11.2 1.1zm-16-1.7c-3.5-0.4-7.2-0.9-11.1-1.4l0.3-1.6c3.8 0.5 7.5 1 11 1.5zm68.6-0.5l-0.3-1.6c3.7-0.9 7.2-2 10.6-3.2l0.5 1.5c-3.3 1.2-7 2.3-10.8 3.3zm-84.4-1.6q-5.6-0.8-11.1-1.7l0.3-1.6q5.5 0.9 11 1.7zm158.3-0.5v-1.6c3.5 0 7.3-0.1 11.1-0.4l0.1 1.6c-3.8 0.3-7.6 0.4-11.2 0.4zm-4.8 0c-3.9-0.2-7.7-0.4-11.3-0.9l0.2-1.6c3.6 0.5 7.3 0.8 11.1 0.9zm20.9-0.8l-0.2-1.6c3.6-0.4 7.3-0.9 11-1.5l0.3 1.6c-3.8 0.6-7.5 1.1-11.1 1.5zm-405.2-0.3l-0.6-1.4c3.4-1.5 6.9-2.9 10.4-4.2l0.5 1.5c-3.4 1.2-6.9 2.6-10.3 4.1zm368.3-0.5c-3.8-0.7-7.5-1.6-11-2.7l0.5-1.5c3.4 1.1 7 1.9 10.8 2.6zm-153.3-0.3q-5.5-0.9-11-1.8l0.2-1.6q5.6 1 11.1 1.8zm115.5-1.1l-0.7-1.4c3.5-1.6 6.8-3.4 9.7-5.4l0.9 1.3c-3 2-6.3 3.9-9.9 5.5zm90.5 0l-0.3-1.6q5.5-1 10.9-2.3l0.3 1.6q-5.4 1.3-10.9 2.3zm-221.8-1.5q-5.5-0.9-11-1.8l0.2-1.6q5.5 0.9 11.1 1.9zm153.5-1.4c-3.6-1.5-7-3.1-10.1-5.1l0.8-1.4q0.1 0.1 0.2 0.2l-0.4-0.5c2.9-2.4 5.5-5 7.7-7.9l1.2 1c-2.2 2.8-4.8 5.5-7.6 7.9q4.1 2.4 8.8 4.3zm83.9-0.7l-0.5-1.5c3.6-1 7.2-2 10.7-3.2l0.5 1.5c-3.5 1.2-7.2 2.3-10.7 3.2zm-421.9-0.2l-0.5-1.5c3.5-1.2 7.1-2.3 10.7-3.3l0.5 1.5c-3.6 1-7.2 2.1-10.7 3.3zm168.7-0.4q-5.5-0.9-11-1.8l0.2-1.6q5.5 0.9 11.1 1.9zm-15.8-2.7q-5.5-0.9-11-1.7l0.2-1.6q5.5 0.9 11 1.8zm-137.6-1.6l-0.4-1.5c3.6-0.9 7.3-1.7 10.9-2.5l0.3 1.6c-3.6 0.7-7.2 1.5-10.8 2.4zm421.9 0l-0.6-1.5c3.5-1.3 6.9-2.7 10.3-4.2l0.7 1.5c-3.5 1.5-7 2.9-10.4 4.2zm-300-0.9c-3.9-0.6-7.6-1.1-11.1-1.6l0.2-1.5c3.6 0.4 7.2 1 11.1 1.5zm186.7-1.5c-3-2.4-5.7-5-8.1-7.9l1.2-1c2.3 2.8 5 5.4 7.9 7.6zm-202.5-0.6c-3.8-0.5-7.6-0.9-11.1-1.3l0.1-1.6c3.6 0.4 7.3 0.8 11.2 1.3zm-90.5-0.2l-0.3-1.5c3.6-0.6 7.4-1.2 11.1-1.6l0.2 1.6c-3.7 0.4-7.4 0.9-11 1.5zm74.6-1.5c-3.8-0.4-7.5-0.7-11.1-0.9l0.1-1.6c3.6 0.2 7.3 0.5 11.1 0.9zm-58.8-0.5l-0.2-1.6c3.7-0.4 7.4-0.7 11.2-0.9l0.1 1.6c-3.8 0.2-7.5 0.5-11.1 0.9zm42.9-0.7c-3.7-0.2-7.5-0.4-11.1-0.4v-1.6c3.7 0 7.4 0.2 11.2 0.4zm362.4-0.2l-0.7-1.4c3.4-1.5 6.7-3.2 10-5l0.7 1.4c-3.3 1.8-6.6 3.5-10 5zm-389.5-0.2v-1.5c3.6-0.2 7.5-0.2 11.2-0.2v1.6c-3.7 0-7.5 0-11.2 0.1zm277.7-5.8l-1.3-0.8c1.9-3.1 3.5-6.5 4.6-10l1.5 0.5c-1.1 3.6-2.8 7.1-4.8 10.3zm126-1.3l-0.8-1.4c3.2-1.8 6.4-3.7 9.6-5.7l0.8 1.3c-3.1 2-6.3 4-9.6 5.8zm-153.3-0.8c-2.2-3.3-3.8-6.7-4.9-10.2l1.5-0.5c1.1 3.4 2.7 6.7 4.8 9.9zm166.9-7.7l-0.9-1.3c3-2.1 6.1-4.3 9.1-6.5l0.9 1.3c-3 2.2-6 4.4-9.1 6.5zm-133.8-5.4l-1.6-0.2c0.6-3.6 0.7-7.4-0.1-10.9l1.6-0.3c0.8 3.7 0.7 7.6 0.1 11.4zm-39.2-2c-0.6-3.8-0.5-7.7 0.5-11.4l1.5 0.5c-1 3.4-1 7.1-0.4 10.7zm185.9-2.1l-0.9-1.2c2.8-2.3 5.7-4.7 8.6-7.1l1 1.2c-2.8 2.4-5.8 4.8-8.7 7.1zm12.3-10.3l-1-1.2c2.7-2.4 5.5-5 8.2-7.6l1.1 1.2c-2.7 2.6-5.5 5.2-8.3 7.6zm-162-1.1c-1.4-3.4-3.7-6.6-6.4-8.6l1-1.3c2.9 2.2 5.4 5.7 6.8 9.2zm-32.4-1.7l-1.4-0.7c1.9-3.4 4.7-6.3 8-8.2l0.8 1.3c-3.1 1.8-5.6 4.5-7.4 7.6zm206.2-8.1l-1.2-1.2c2.6-2.6 5.2-5.3 7.8-8l1.1 1c-2.5 2.8-5.1 5.5-7.7 8.2zm-184.1-0.9c-3.2-1.3-6.9-1.4-10.4-0.4l-0.5-1.5c3.9-1.1 7.9-1 11.5 0.4zm195-10.8l-1.2-1.1c2.5-2.7 4.9-5.6 7.3-8.4l1.3 1c-2.5 2.9-4.9 5.7-7.4 8.5zm10.4-12.3l-1.2-0.9c2.3-2.9 4.6-5.9 6.8-8.9l1.3 1c-2.3 3-4.6 6-6.9 8.8zm9.8-12.7l-1.3-0.9c2.2-3 4.3-6.1 6.4-9.1l1.4 0.9c-2.2 3.1-4.3 6.1-6.5 9.1zm9.2-13.1l-1.4-0.9c2.1-3 4.1-6.2 6.1-9.3l1.4 0.8c-2 3.2-4.1 6.3-6.1 9.4zm8.6-13.5l-1.4-0.8c2-3.1 3.9-6.4 5.8-9.6l1.3 0.8c-1.8 3.2-3.8 6.5-5.7 9.6zm8.1-13.8l-1.4-0.7c1.9-3.3 3.7-6.5 5.4-9.8l1.4 0.7c-1.7 3.3-3.6 6.6-5.4 9.8zm7.7-14l-1.5-0.7c1.7-3.3 3.4-6.6 5.1-10l1.4 0.7c-1.6 3.4-3.3 6.7-5 10zm7.1-14.3l-1.4-0.7c1.6-3.3 3.2-6.7 4.7-10.1l1.5 0.7c-1.6 3.4-3.2 6.8-4.8 10.1zm6.8-14.5l-1.5-0.7c1.5-3.3 3-6.8 4.4-10.2l1.5 0.6c-1.4 3.4-2.9 6.9-4.4 10.3zm6.2-14.7l-1.4-0.6c1.4-3.5 2.8-7 4.1-10.4l1.5 0.6c-1.3 3.4-2.7 6.9-4.2 10.4z"/>
					<path id="&lt;Path&gt;" class="s3" d="m1525.3 952l-0.1-1.6q2.8-0.1 5.5-0.4l0.2 1.6q-2.8 0.3-5.6 0.4z"/>
				</g>
			</g>
			<path id="&lt;Compound Path&gt;" class="s3" d="m1514.1 951.3c-3.7-0.9-7.3-2.1-10.7-3.7l0.7-1.4c3.3 1.5 6.8 2.7 10.3 3.5zm-14.9-5.9c-3.3-1.9-6.3-4.2-9.1-6.7l1-1.2c2.7 2.5 5.7 4.7 8.9 6.5zm-12.6-10.1q-3.8-4.1-6.7-9l1.4-0.8q2.8 4.7 6.5 8.8zm-8.9-13.4c-1.6-3.4-2.9-7-3.7-10.6l1.5-0.4c0.9 3.6 2.1 7 3.6 10.3zm-4.6-15.4q-0.8-5.6-0.4-11.3l1.6 0.2q-0.4 5.4 0.4 10.9z"/>
		</g>
		<path id="&lt;Path&gt;" class="s4" d="m228.7 1549.6c851.6-3.4 1741.3-3.4 2592.9 0-851.7 3.4-1741.3 3.3-2592.9 0z"/>
	</g>
</svg>