<svg id="edit-svgrepo-com_1_" data-name="edit-svgrepo-com (1)" xmlns="http://www.w3.org/2000/svg" width="14.136" height="14.175" viewBox="0 0 14.136 14.175">
  <g id="Group_27" data-name="Group 27" transform="translate(0 0)">
    <path id="Path_2098" data-name="Path 2098" d="M74.53,12.118l3.577-1.474a1.989,1.989,0,0,0,.24-.179l5.892-7.183a.643.643,0,0,0-.09-.841L81.351.127a.574.574,0,0,0-.812.09L74.619,7.4a1.075,1.075,0,0,0-.121.272l-.751,3.817C73.709,12.138,74.232,12.251,74.53,12.118Zm6.521-10.7,1.893,1.563L77.809,9.252,75.934,7.7ZM75.469,8.868l1.283,1.063-1.653.682Z" transform="translate(-71.633 0)" fill="#00494b"/>
    <path id="Path_2099" data-name="Path 2099" d="M14.207,384.254H4.109s-2.095.1-2.173-.439c0-.029-.052-.162.22-.491a.6.6,0,0,0-.9-.78c-.572.691-.722,1.292-.451,1.835.737,1.372,3.216,1.049,3.334,1.078h10.07a.6.6,0,1,0,0-1.2Z" transform="translate(-0.672 -371.295)" fill="#00494b"/>
  </g>
</svg>
