<svg id="camera-svgrepo-com" xmlns="http://www.w3.org/2000/svg" width="10.475" height="8.577" viewBox="0 0 10.475 8.577">
  <path id="Path_2091" data-name="Path 2091" d="M177.274,27.221a.317.317,0,0,0-.317-.317h-2.739a.317.317,0,0,0-.317.317v.513h3.373v-.513Z" transform="translate(-167.768 -26.904)" fill="#00494b"/>
  <path id="Path_2092" data-name="Path 2092" d="M29.79,105.9a2.332,2.332,0,1,0-2.332-2.332A2.335,2.335,0,0,0,29.79,105.9Zm-1.145-3.478a1.62,1.62,0,1,1-.474,1.145A1.622,1.622,0,0,1,28.645,102.421Z" transform="translate(-26.49 -98.612)" fill="#00494b"/>
  <path id="Path_2093" data-name="Path 2093" d="M158.627,121.227a2.818,2.818,0,0,1-.558,1.687h4.9V119.54h-4.9A2.818,2.818,0,0,1,158.627,121.227Z" transform="translate(-152.494 -116.273)" fill="#00494b"/>
  <path id="Path_2094" data-name="Path 2094" d="M.468,121.226a2.818,2.818,0,0,1,.558-1.687H0v3.373H1.026A2.818,2.818,0,0,1,.468,121.226Z" transform="translate(0 -116.272)" fill="#00494b"/>
  <path id="Path_2095" data-name="Path 2095" d="M63.759,137.535a1.119,1.119,0,1,0-1.583,0A1.112,1.112,0,0,0,63.759,137.535Z" transform="translate(-59.667 -131.79)" fill="#00494b"/>
  <path id="Path_2096" data-name="Path 2096" d="M9.9,64.623H.576A.577.577,0,0,0,0,65.2v.86H1.5a2.827,2.827,0,0,1,3.6,0h5.376V65.2A.577.577,0,0,0,9.9,64.623Zm-.993.978H6.969a.25.25,0,1,1,0-.5H8.906a.25.25,0,1,1,0,.5Z" transform="translate(0 -63.293)" fill="#00494b"/>
  <path id="Path_2097" data-name="Path 2097" d="M3.3,230.018a2.82,2.82,0,0,1-1.8-.646H0v.86a.577.577,0,0,0,.576.577H9.9a.577.577,0,0,0,.576-.577v-.86H5.1A2.82,2.82,0,0,1,3.3,230.018Z" transform="translate(0 -222.231)" fill="#00494b"/>
</svg>
