<svg xmlns="http://www.w3.org/2000/svg" width="16.229" height="15.686" viewBox="0 0 16.229 15.686">
  <g id="language-svgrepo-com" transform="translate(-0.001)">
    <g id="Group_84" data-name="Group 84" transform="translate(2.235 2.234)">
      <g id="Group_83" data-name="Group 83">
        <path id="Path_2183" data-name="Path 2183" d="M81.522,76.255a5.266,5.266,0,1,0,5.266,5.266A5.271,5.271,0,0,0,81.522,76.255Zm4.764,4.8a.239.239,0,0,1-.239.23H84.952v-.558a.239.239,0,0,0-.239-.239H81.761V80h.718a.239.239,0,0,0,.239-.239.24.24,0,0,1,.239-.239h.319a.239.239,0,0,0,.239-.239v-.878h1.64A4.767,4.767,0,0,1,86.285,81.052Zm-4.764-4.318a4.8,4.8,0,0,1,.659.046.718.718,0,0,1-1.319,0A4.808,4.808,0,0,1,81.522,76.734ZM78.41,77.886v2.6H76.848A4.792,4.792,0,0,1,78.41,77.886ZM76.8,82.328a.394.394,0,0,1,.251-.089h1.675v.718a1.852,1.852,0,0,1-.351.979l-.533.647A4.769,4.769,0,0,1,76.8,82.328Zm4.718,3.98a4.8,4.8,0,0,1-.659-.046.718.718,0,0,1,1.319,0A4.8,4.8,0,0,1,81.522,86.307Zm1.137-.137a1.2,1.2,0,0,0-2.273,0,4.784,4.784,0,0,1-2.212-1.233l.575-.7a2.31,2.31,0,0,0,.46-1.283V82a.239.239,0,0,0-.239-.239H77.054a.876.876,0,0,0-.31.056c-.006-.1-.009-.2-.009-.3a4.816,4.816,0,0,1,.033-.558H78.41v.08a.239.239,0,0,0,.479,0V77.525a4.763,4.763,0,0,1,1.5-.654,1.2,1.2,0,0,0,2.273,0,4.78,4.78,0,0,1,2.026,1.06H82.8a.239.239,0,0,0,0,.479h.239v.638h-.08a.719.719,0,0,0-.677.479h-.759a.239.239,0,0,0-.239.239v.718h-.4a.239.239,0,0,0,0,.479h2.633v.479H81.2a.878.878,0,0,0,0,1.755h.08v.878a.879.879,0,0,0,.878.878h1.117a.239.239,0,0,0,.239-.239V83.675a.239.239,0,0,0-.479,0v.8H82.16a.4.4,0,0,1-.4-.4V82.956a.239.239,0,0,0-.239-.239H81.2a.4.4,0,1,1,0-.8h1.835v.8a.239.239,0,0,0,.479,0v-.8h.239a.239.239,0,0,0,.239-.239v-.718h.479v1.356a.239.239,0,0,0,.479,0V81.76h1.094a.714.714,0,0,0,.258-.048A4.8,4.8,0,0,1,82.658,86.171Z" transform="translate(-76.256 -76.255)" fill="#fff"/>
      </g>
    </g>
    <g id="Group_86" data-name="Group 86" transform="translate(9.973 9.414)">
      <g id="Group_85" data-name="Group 85">
        <path id="Path_2184" data-name="Path 2184" d="M340.665,321.362a.239.239,0,0,0-.239.239v.319a.239.239,0,1,0,.479,0V321.6A.239.239,0,0,0,340.665,321.362Z" transform="translate(-340.426 -321.362)" fill="#a4a0a0"/>
      </g>
    </g>
    <g id="Group_88" data-name="Group 88" transform="translate(6.622 4.228)">
      <g id="Group_87" data-name="Group 87">
        <path id="Path_2185" data-name="Path 2185" d="M226.282,144.34a.239.239,0,0,0-.239.239v.319a.239.239,0,0,0,.479,0v-.319A.239.239,0,0,0,226.282,144.34Z" transform="translate(-226.043 -144.34)" fill="#a4a0a0"/>
      </g>
    </g>
    <g id="Group_90" data-name="Group 90" transform="translate(0.001 0)">
      <g id="Group_89" data-name="Group 89">
        <path id="Path_2186" data-name="Path 2186" d="M12.8,2.2A7.5,7.5,0,0,0,2.559,1.859a.239.239,0,1,0,.316.36,7.02,7.02,0,1,1,.87,11.213.239.239,0,0,0-.2-.025l-2.922.974.974-2.922a.239.239,0,0,0-.025-.2,7.022,7.022,0,0,1,.652-8.382.239.239,0,1,0-.36-.316A7.5,7.5,0,0,0,1.1,11.414L.013,14.684a.239.239,0,0,0,.3.3L3.585,13.9A7.5,7.5,0,0,0,12.8,2.2Z" transform="translate(-0.001 0)" fill="#a4a0a0"/>
      </g>
    </g>
  </g>
</svg>
