<svg xmlns="http://www.w3.org/2000/svg" width="16.229" height="14.802" viewBox="0 0 16.229 14.802">
  <g id="email-svgrepo-com_3_" data-name="email-svgrepo-com (3)" transform="translate(0 -20.014)">
    <path id="Path_890" data-name="Path 890" d="M0,40.2v8.745l4.858-4.373Z" transform="translate(0 -19.462)" fill="#fff"/>
    <path id="Path_891" data-name="Path 891" d="M34.911,20.014H22.421l6.245,5.621Z" transform="translate(-21.621 0)" fill="#fff"/>
    <path id="Path_892" data-name="Path 892" d="M260.008,45.651a3.744,3.744,0,0,1,3.656-1.638V40.2l-4.858,4.373Z" transform="translate(-249.575 -19.462)" fill="#fff"/>
    <path id="Path_893" data-name="Path 893" d="M35.175,176.127A2.678,2.678,0,0,0,32.5,178.8v2.813a1.605,1.605,0,0,0,3.21,0V178.8H34.64v2.813a.535.535,0,0,1-1.07,0V178.8a1.605,1.605,0,0,1,3.21,0v2.813a2.675,2.675,0,0,1-5.35,0l.009-3.08,0-.044a3.737,3.737,0,0,1,.139-.743l-1.529-1.377-1.387,1.248-1.387-1.248-4.858,4.373H30.36v.871a3.745,3.745,0,0,0,7.49,0V178.8A2.678,2.678,0,0,0,35.175,176.127Z" transform="translate(-21.621 -150.545)" fill="#fff"/>
  </g>
</svg>
