<svg xmlns="http://www.w3.org/2000/svg" width="17.626" height="8.551" viewBox="0 0 17.626 8.551">
  <g id="key-svgrepo-com" transform="translate(0 249.901) rotate(-90)">
    <path id="Path_774" data-name="Path 774" d="M248.648,7.3a4.273,4.273,0,1,0-4.2,1.089v8.064a1.175,1.175,0,1,0,2.35,0v-.267h.673a1.175,1.175,0,0,0,0-2.35H246.8v-.69h.673a1.175,1.175,0,0,0,0-2.35H246.8V8.387A4.239,4.239,0,0,0,248.648,7.3ZM243.7,4.275A1.925,1.925,0,1,1,245.625,6.2,1.927,1.927,0,0,1,243.7,4.275Z" transform="translate(0 0)" fill="#fff"/>
  </g>
</svg>
