<svg xmlns="http://www.w3.org/2000/svg" width="13.353" height="17.38" viewBox="0 0 13.353 17.38">
  <path id="Path_15" data-name="Path 15" d="M149.082,14.23h-.037V12.55a5.331,5.331,0,0,0-5.305-5.355,5.231,5.231,0,0,0-5.132,5.219v.161a.44.44,0,0,0,.438.439h1.4a.44.44,0,0,0,.439-.439v-.049a3.012,3.012,0,0,1,2.748-3.045,2.939,2.939,0,0,1,3.125,2.927v1.816h-4.323v.006h-4A1.378,1.378,0,0,0,137.1,15.6v7.6a1.379,1.379,0,0,0,1.377,1.377h10.6a1.379,1.379,0,0,0,1.377-1.377v-7.59A1.369,1.369,0,0,0,149.082,14.23ZM144.6,19.745a.3.3,0,0,0-.136.278c.006.556.006,1.112,0,1.674h0a.586.586,0,0,1-.315.562.653.653,0,0,1-.976-.562v-1.68a.291.291,0,0,0-.124-.266,1.269,1.269,0,0,1-.42-1.569,1.3,1.3,0,0,1,2.483.513A1.176,1.176,0,0,1,144.6,19.745Z" transform="translate(-137.1 -7.194)" fill="#fff"/>
</svg>
