<svg xmlns="http://www.w3.org/2000/svg" width="63.214" height="64.069" viewBox="0 0 63.214 64.069">
  <g id="Padlock" transform="translate(-1183.77 -120.439)">
    <path id="Path_874" data-name="Path 874" d="M214.1,157.529a16.234,16.234,0,0,0-8.863,21.148l10.066,24.571,4.514-1.846-10.062-24.558a11.334,11.334,0,0,1,20.977-8.589l4.492-1.851A16.225,16.225,0,0,0,214.1,157.529Z" transform="translate(990.303 -35.89)" fill="#c95d00"/>
    <rect id="Rectangle_45" data-name="Rectangle 45" width="43.702" height="28.039" rx="5.81" transform="translate(1195.915 158.56) rotate(-22.27)" fill="#ff7600"/>
    <g id="Group_14" data-name="Group 14" transform="translate(1216.406 156.191)" opacity="0.5">
      <path id="Path_876" data-name="Path 876" d="M260.2,238.2a3.652,3.652,0,1,0-2.974,5l2.066,5.053,1.846-.755-2.071-5.053A3.639,3.639,0,0,0,260.2,238.2Z" transform="translate(-253.163 -235.92)"/>
    </g>
    <path id="Path_877" data-name="Path 877" d="M224.05,267.819c-.094.04-1.941-4.258-4.124-9.595s-3.886-9.694-3.791-9.734,1.941,4.258,4.124,9.6S224.158,267.783,224.05,267.819Z" transform="translate(983.64 -86.652)" fill="#fafafa"/>
    <path id="Path_878" data-name="Path 878" d="M254.17,244.541a1.263,1.263,0,0,1-.49-.063,4.554,4.554,0,0,1-1.235-.535,5.112,5.112,0,0,1-1.226-7.8,4.42,4.42,0,0,1,1.011-.9,1.181,1.181,0,0,1,.449-.207,11.65,11.65,0,0,0-1.258,1.253,5.062,5.062,0,0,0,1.168,7.421A11.181,11.181,0,0,0,254.17,244.541Z" transform="translate(965.024 -79.244)" fill="#fafafa"/>
    <path id="Path_879" data-name="Path 879" d="M193.794,265.268l.22-.638.418.526a2.767,2.767,0,0,0,1.294.9l.638.22-.53.418a2.848,2.848,0,0,0-.9,1.294l-.216.638-.418-.526a2.8,2.8,0,0,0-1.3-.9l-.633-.22.526-.418A2.848,2.848,0,0,0,193.794,265.268Z" transform="translate(996.727 -95.543)" fill="#ff7600"/>
    <path id="Path_880" data-name="Path 880" d="M241.97,209.808l.126-.368.243.305a1.693,1.693,0,0,0,.755.53l.368.126-.305.243a1.666,1.666,0,0,0-.535.755l-.126.368-.243-.305a1.59,1.59,0,0,0-.75-.53l-.373-.13.31-.243A1.653,1.653,0,0,0,241.97,209.808Z" transform="translate(969.87 -65.144)" fill="#ff7600"/>
    <path id="Path_881" data-name="Path 881" d="M182.945,215.894l.368-1.074.705.9a4.707,4.707,0,0,0,2.174,1.536l1.069.368-.9.7a4.784,4.784,0,0,0-1.541,2.179l-.368,1.069-.7-.9a4.739,4.739,0,0,0-2.174-1.536l-1.069-.368.9-.7A4.752,4.752,0,0,0,182.945,215.894Z" transform="translate(1003.26 -68.107)" fill="#ff7600"/>
  </g>
</svg>
