<svg xmlns="http://www.w3.org/2000/svg" width="16.229" height="15.686" viewBox="0 0 16.229 15.686">
  <g id="phone-svgrepo-com" transform="translate(0 -1.003)">
    <path id="Path_1" data-name="Path 1" d="M11.933,13.888a1.5,1.5,0,0,0-.733-.211.912.912,0,0,0-.815.455,9.03,9.03,0,0,1-.7.776,1.167,1.167,0,0,1-1.7-.17l-3.11-3.11a1.172,1.172,0,0,1-.171-1.7,9.119,9.119,0,0,1,.777-.7.9.9,0,0,0,.419-.54,1.339,1.339,0,0,0-.177-1.01A8.176,8.176,0,0,0,3.529,5.159,1.336,1.336,0,0,0,1.959,5.4l-.687.687A3.755,3.755,0,0,0,.1,9.743a7.743,7.743,0,0,0,2.242,3.538l3.981,3.981c1.556,1.556,3.039,2.345,4.408,2.345h0a3.9,3.9,0,0,0,2.79-1.272l.687-.687a1.329,1.329,0,0,0,.236-1.569A8.176,8.176,0,0,0,11.933,13.888Z" transform="translate(0 -2.918)" fill="#fff"/>
    <path id="Path_2" data-name="Path 2" d="M52.6,32.393a1.814,1.814,0,0,1-1.812-1.812.271.271,0,1,0-.541,0A2.356,2.356,0,0,0,52.6,32.934a.271.271,0,1,0,0-.541Z" transform="translate(-36.645 -21.372)" fill="#fff"/>
    <path id="Path_3" data-name="Path 3" d="M55.567,32.3a.271.271,0,1,0,0-.541.435.435,0,0,1-.435-.435.271.271,0,1,0-.541,0A.977.977,0,0,0,55.567,32.3Z" transform="translate(-39.811 -21.917)" fill="#fff"/>
    <path id="Path_4" data-name="Path 4" d="M19.213,1.544a1.814,1.814,0,0,1,1.812,1.812.271.271,0,1,0,.541,0A2.356,2.356,0,0,0,19.213,1a.271.271,0,1,0,0,.541Z" transform="translate(-13.814)" fill="#fff"/>
    <path id="Path_5" data-name="Path 5" d="M19.689,5.616a.271.271,0,0,0,.271.271.435.435,0,0,1,.434.435.271.271,0,1,0,.541,0,.977.977,0,0,0-.976-.976A.271.271,0,0,0,19.689,5.616Z" transform="translate(-14.359 -3.166)" fill="#fff"/>
  </g>
</svg>
