<svg xmlns="http://www.w3.org/2000/svg" xmlns:xlink="http://www.w3.org/1999/xlink" width="70.062" height="71.51" viewBox="0 0 70.062 71.51">
  <defs>
    <clipPath id="clip-path">
      <path id="Path_786" data-name="Path 786" d="M239.976,176.446c-1.958-2.938-6.633-3.806-10.328-5s-5.872-3.574-4.893-9.456,6.075-15.439,5.979-17.179-17.612-1.63-19.245-1.072-1.955.432-3.477,2.391a27.1,27.1,0,0,0-2.284,3.37l1.887-3.967h.136a5.111,5.111,0,0,1,.865-1.43,11.031,11.031,0,0,0,2.662-6.912c.071-3.745-2.591-3.381-3.095-2.23a56.393,56.393,0,0,1-4.317,6.19c-.865,1.079-2.67,4.017-2.67,4.017l-2,6.926s-.436,2.066-2.938,9.9-1.43,11.415-1.43,11.415-.654-.325-2.176,4.349-.868,10.654,1.848,13.48,6.308,2.72,10.328,1.09A12.365,12.365,0,0,0,210.7,187.1a23.478,23.478,0,0,0,7.394-3.477c3.152-2.405,5.547-4.893,10.11-4.675s9.785,2.827,11.526,2.716S241.938,179.38,239.976,176.446Z" transform="translate(-191.851 -134.167)" fill="#fff" stroke="#263238" stroke-linecap="round" stroke-linejoin="round" stroke-width="0.3"/>
    </clipPath>
  </defs>
  <g id="Message" transform="translate(-0.181 -0.344)">
    <path id="Path_782" data-name="Path 782" d="M169.2,247.253s-.915-1.53-1.755-1.6-10.839,6.183-12.369,9.467a16.884,16.884,0,0,0,1.072,16.129c3.949,6.136,10.139,5.933,13.345,5.625s5.361-1.351,8.616-3.96,6.236-6.451,6.669-9.06a3.84,3.84,0,0,0-2.173-4.421c-1.015-.361-6.887-.289-11.165-4.646S169.2,247.253,169.2,247.253Z" transform="translate(-153.03 -205.27)" fill="#263238" stroke="#263238" stroke-linecap="round" stroke-linejoin="round" stroke-width="0.3"/>
    <path id="Path_783" data-name="Path 783" d="M188.643,244.58a12.693,12.693,0,0,0-4.2,2.748c-1.6,1.755-2.595,4.507-2.67,8.552s1.222,8.624,6.258,10.611,9.542.457,10.993-.918,3.216-5.264,3.216-5.264-8.016,2.144-11.833-2.369S188.643,244.58,188.643,244.58Z" transform="translate(-171.185 -204.583)" fill="#fff" stroke="#263238" stroke-linecap="round" stroke-linejoin="round" stroke-width="0.3"/>
    <path id="Path_784" data-name="Path 784" d="M239.976,176.446c-1.958-2.938-6.633-3.806-10.328-5s-5.872-3.574-4.893-9.456,6.075-15.439,5.979-17.179-17.612-1.63-19.245-1.072-1.955.432-3.477,2.391a27.1,27.1,0,0,0-2.284,3.37l1.887-3.967h.136a5.111,5.111,0,0,1,.865-1.43,11.031,11.031,0,0,0,2.662-6.912c.071-3.745-2.591-3.381-3.095-2.23a56.393,56.393,0,0,1-4.317,6.19c-.865,1.079-2.67,4.017-2.67,4.017l-2,6.926s-.436,2.066-2.938,9.9-1.43,11.415-1.43,11.415-.654-.325-2.176,4.349-.868,10.654,1.848,13.48,6.308,2.72,10.328,1.09A12.365,12.365,0,0,0,210.7,187.1a23.478,23.478,0,0,0,7.394-3.477c3.152-2.405,5.547-4.893,10.11-4.675s9.785,2.827,11.526,2.716S241.938,179.38,239.976,176.446Z" transform="translate(-177.663 -133.63)" fill="#fff" stroke="#707070" stroke-width="0.3"/>
    <g id="Group_12" data-name="Group 12" transform="translate(14.189 0.537)" clip-path="url(#clip-path)">
      <path id="Path_785" data-name="Path 785" d="M211.454,223.639c-12.1,1.8-15.9,4.692-14.692,8.667a6.143,6.143,0,0,0,1.2,2.144.974.974,0,0,0,.021.243s.214.129.536.357a10.254,10.254,0,0,0,1.369,1.111c.793.754,1.5,1.7,1.358,2.573-.311,1.866-4.646,5.125-6.837,5.282s-2.952-2.019-3.263.311,4.507,8.077,9.167,7.455,8.545-7.148,8.545-7.148-.622-1.072,2.5-4.349c2.051-2.144,5-3.091,7.233-3.971a41.49,41.49,0,0,0,6.186-2.373c5.529-2.709,12.1-.9,12.1-.9S223.566,221.813,211.454,223.639Z" transform="translate(-191.388 -191.534)" fill="#ff6d00" stroke="#707070" stroke-width="0.3" opacity="0.25"/>
    </g>
    <path id="Path_787" data-name="Path 787" d="M239.976,176.446c-1.958-2.938-6.633-3.806-10.328-5s-5.872-3.574-4.893-9.456,6.075-15.439,5.979-17.179-17.612-1.63-19.245-1.072-1.955.432-3.477,2.391a27.1,27.1,0,0,0-2.284,3.37l1.887-3.967h.136a5.111,5.111,0,0,1,.865-1.43,11.031,11.031,0,0,0,2.662-6.912c.071-3.745-2.591-3.381-3.095-2.23a25.986,25.986,0,0,1-2.054,3.164c-.769,1.083-1.807,2.456-2.263,3.025-.865,1.079-2.67,4.017-2.67,4.017l-2,6.926s-.436,2.066-2.938,9.9-1.43,11.415-1.43,11.415-.654-.325-2.176,4.349-.868,10.654,1.848,13.48,6.308,2.72,10.328,1.09A12.365,12.365,0,0,0,210.7,187.1a23.478,23.478,0,0,0,7.394-3.477c.936-.714,1.806-1.436,2.932-2.274a10.445,10.445,0,0,1,7.178-2.4c4.564.218,9.785,2.827,11.526,2.716S241.938,179.38,239.976,176.446Z" transform="translate(-177.663 -133.63)" fill="none" stroke="#263238" stroke-linecap="round" stroke-linejoin="round" stroke-width="0.3" opacity="0.2"/>
    <path id="Path_788" data-name="Path 788" d="M315.789,262.013s.229-.915-2.366-2.144-3.663-.382-3.663.229S315.407,262.013,315.789,262.013Z" transform="translate(-253.433 -214.004)" fill="#fff" stroke="#263238" stroke-linecap="round" stroke-linejoin="round" stroke-width="0.3"/>
    <path id="Path_789" data-name="Path 789" d="M246.117,149.574l-6.547,5.039h8.777S248.347,148.423,246.117,149.574Z" transform="translate(-208.328 -143.439)" fill="#fff" stroke="#263238" stroke-linecap="round" stroke-linejoin="round" stroke-width="0.3"/>
    <path id="Path_790" data-name="Path 790" d="M234.91,247.205A9.149,9.149,0,0,1,238.3,244.8" transform="translate(-205.333 -204.725)" fill="none" stroke="#263238" stroke-linecap="round" stroke-linejoin="round" stroke-width="0.3"/>
    <path id="Path_791" data-name="Path 791" d="M231.58,255.5a4.388,4.388,0,0,1,.39-.833" transform="translate(-203.193 -211.067)" fill="none" stroke="#263238" stroke-linecap="round" stroke-linejoin="round" stroke-width="0.3"/>
    <path id="Path_792" data-name="Path 792" d="M222.519,274.207a9.6,9.6,0,0,1-.979-1" transform="translate(-196.741 -222.982)" fill="none" stroke="#263238" stroke-linecap="round" stroke-linejoin="round" stroke-width="0.3"/>
    <path id="Path_793" data-name="Path 793" d="M234.2,280.134a9.581,9.581,0,0,1-5.825-1.194" transform="translate(-201.13 -226.664)" fill="none" stroke="#263238" stroke-linecap="round" stroke-linejoin="round" stroke-width="0.3"/>
    <path id="Path_794" data-name="Path 794" d="M239.018,162.72h-32.99a8.066,8.066,0,0,0-8.248,7.862v15.546a7.975,7.975,0,0,0,6.515,7.7l-1.74,5.15,8.066-4.975h28.4a8.066,8.066,0,0,0,8.248-7.862V170.6A8.069,8.069,0,0,0,239.018,162.72Z" transform="translate(-181.473 -151.979)" fill="#ff7600"/>
    <line id="Line_22" data-name="Line 22" x2="37.089" transform="translate(21.679 21.209)" fill="none" stroke="#263238" stroke-linecap="round" stroke-miterlimit="10" stroke-width="0.3"/>
    <line id="Line_23" data-name="Line 23" x2="37.089" transform="translate(21.679 25.026)" fill="none" stroke="#263238" stroke-linecap="round" stroke-miterlimit="10" stroke-width="0.3"/>
    <line id="Line_24" data-name="Line 24" x2="37.089" transform="translate(21.679 28.846)" fill="none" stroke="#263238" stroke-linecap="round" stroke-miterlimit="10" stroke-width="0.3"/>
    <line id="Line_25" data-name="Line 25" x2="37.089" transform="translate(21.679 32.663)" fill="none" stroke="#263238" stroke-linecap="round" stroke-miterlimit="10" stroke-width="0.3"/>
    <ellipse id="Ellipse_17" data-name="Ellipse 17" cx="4.599" cy="4.392" rx="4.599" ry="4.392" transform="translate(60.894 15.584)" fill="#263238" stroke="#707070" stroke-width="0.3"/>
    <path id="Path_795" data-name="Path 795" d="M331.091,186.116a1.9,1.9,0,0,1-.2-.976v-3.574l-.808.45a.586.586,0,0,1-.286.079.532.532,0,0,1-.4-.175.575.575,0,0,1-.161-.407.493.493,0,0,1,.086-.289,1.143,1.143,0,0,1,.293-.254l1.551-.815a1.237,1.237,0,0,1,.593-.225c.532,0,.8.4.8,1.2v4.121c0,.783-.279,1.172-.84,1.172a.686.686,0,0,1-.629-.307Z" transform="translate(-265.951 -163.038)" fill="#fff" stroke="#707070" stroke-width="0.3"/>
    <path id="Path_796" data-name="Path 796" d="M285.512,149.991a5.429,5.429,0,0,0,2.734,4.246c2.587,1.369,5.9,1.072,5.975-.647s-1.919-3.527-3.3-5.843-4.392-1-5.686.579" transform="translate(-237.676 -141.551)" fill="#fff" stroke="#263238" stroke-linecap="round" stroke-linejoin="round" stroke-width="0.3"/>
    <path id="Path_797" data-name="Path 797" d="M298.464,160.3a1.948,1.948,0,0,0,1.294,2.144,2.667,2.667,0,0,0,2.952-.861,4.545,4.545,0,0,0-1.072-2.627C300.737,159.074,298.632,159.4,298.464,160.3Z" transform="translate(-246.15 -149.562)" fill="#fff" stroke="#263238" stroke-linecap="round" stroke-linejoin="round" stroke-width="0.3"/>
    <path id="Path_798" data-name="Path 798" d="M270.394,149.991a5.418,5.418,0,0,0,2.734,4.246c2.591,1.369,5.9,1.072,5.975-.647s-1.944-3.527-3.327-5.843-4.389-1-5.686.579" transform="translate(-227.94 -141.551)" fill="#fff" stroke="#263238" stroke-linecap="round" stroke-linejoin="round" stroke-width="0.3"/>
    <path id="Path_799" data-name="Path 799" d="M283.356,160.3a1.954,1.954,0,0,0,1.3,2.144,2.667,2.667,0,0,0,2.952-.861,4.593,4.593,0,0,0-1.072-2.627C285.632,159.074,283.527,159.4,283.356,160.3Z" transform="translate(-236.442 -149.562)" fill="#fff" stroke="#263238" stroke-linecap="round" stroke-linejoin="round" stroke-width="0.3"/>
    <path id="Path_800" data-name="Path 800" d="M256.372,149.991a5.427,5.427,0,0,0,2.738,4.246c2.591,1.369,5.9,1.072,5.972-.647s-1.944-3.527-3.306-5.843-4.392-1-5.686.579" transform="translate(-218.944 -141.551)" fill="#fff" stroke="#263238" stroke-linecap="round" stroke-linejoin="round" stroke-width="0.3"/>
    <path id="Path_801" data-name="Path 801" d="M269.306,160.3a1.952,1.952,0,0,0,1.294,2.144,2.66,2.66,0,0,0,2.952-.861,4.545,4.545,0,0,0-1.072-2.627C271.579,159.074,269.474,159.4,269.306,160.3Z" transform="translate(-227.413 -149.562)" fill="#fff" stroke="#263238" stroke-linecap="round" stroke-linejoin="round" stroke-width="0.3"/>
    <path id="Path_802" data-name="Path 802" d="M200.26,244s.2,4.424,2.641,7.4" transform="translate(-183.066 -204.211)" fill="none" stroke="#263238" stroke-linecap="round" stroke-linejoin="round" stroke-width="0.3"/>
    <path id="Path_803" data-name="Path 803" d="M175.56,292.74a1.366,1.366,0,1,1-1.34-1.63A1.506,1.506,0,0,1,175.56,292.74Z" transform="translate(-165.471 -234.485)" fill="#fff" stroke="#707070" stroke-width="0.3"/>
    <path id="Path_804" data-name="Path 804" d="M166.23,298.413a1.366,1.366,0,1,1-1.34-1.633A1.506,1.506,0,0,1,166.23,298.413Z" transform="translate(-159.476 -238.128)" fill="none" stroke="#263238" stroke-linecap="round" stroke-linejoin="round" stroke-width="0.3"/>
  </g>
</svg>
