<svg id="upload-sign-svgrepo-com_1_" data-name="upload-sign-svgrepo-com (1)" xmlns="http://www.w3.org/2000/svg" width="8.493" height="8.495" viewBox="0 0 8.493 8.495">
  <path id="Path_2089" data-name="Path 2089" d="M7.87,207.506a.681.681,0,0,0-.681.681v1.74H1.42v-1.74a.681.681,0,1,0-1.362,0v2.421a.681.681,0,0,0,.681.681H7.87a.681.681,0,0,0,.681-.681v-2.421A.681.681,0,0,0,7.87,207.506Z" transform="translate(-0.058 -202.794)" fill="#00494b"/>
  <path id="Path_2090" data-name="Path 2090" d="M73.52,3.087l.76-.76V4.864a.681.681,0,1,0,1.362,0V2.326l.76.76a.681.681,0,1,0,.963-.963L75.443.2a.681.681,0,0,0-.963,0L72.557,2.123a.681.681,0,1,0,.963.963Z" transform="translate(-70.715 0)" fill="#00494b"/>
</svg>
