<svg xmlns="http://www.w3.org/2000/svg" width="13.628" height="13.5" viewBox="0 0 13.628 13.5">
  <g id="user-silhouette-svgrepo-com" transform="translate(0.001 -1.916)">
    <g id="Group_20" data-name="Group 20" transform="translate(-0.001 1.916)">
      <path id="Path_888" data-name="Path 888" d="M115.9,9.069a3.347,3.347,0,0,0,3.055-3.576c0-2.739-1.368-3.576-3.055-3.576s-3.055.837-3.055,3.576A3.347,3.347,0,0,0,115.9,9.069Z" transform="translate(-109.085 -1.916)" fill="#fff"/>
      <path id="Path_889" data-name="Path 889" d="M13.56,226.509l-1.542-3.473a.774.774,0,0,0-.349-.371L9.278,221.42a.154.154,0,0,0-.164.014,3.774,3.774,0,0,1-4.6,0,.154.154,0,0,0-.164-.014l-2.392,1.245a.773.773,0,0,0-.349.371L.066,226.509a.771.771,0,0,0,.7,1.083H12.856a.771.771,0,0,0,.7-1.083Z" transform="translate(0.001 -214.092)" fill="#fff"/>
    </g>
  </g>
</svg>
